<svg width="610" height="104" viewBox="0 0 610 104" fill="none" xmlns="http://www.w3.org/2000/svg">
<g clip-path="url(#clip0_306_773)">
<path d="M203.492 93.1689C203.492 93.1689 216.716 83.1689 244.182 83.1689C271.648 83.1689 285.681 93.1689 313.147 93.1689C340.613 93.1689 354.647 83.1689 382.113 83.1689C409.579 83.1689 423.612 93.1689 451.078 93.1689C478.544 93.1689 474.527 83.1689 520.044 83.1689C565.561 83.1689 603.492 89.4847 603.492 89.4847" stroke="#FC5A56" stroke-width="8" stroke-linecap="round"/>
<path d="M3.70819 47.6651C7.26019 48.0491 11.7242 48.2411 16.8122 48.2411C21.5162 48.2411 27.0362 47.9531 30.6842 47.5691V53.9531C27.3242 54.2411 21.4202 54.5291 16.8122 54.5291C11.8202 54.5291 7.64419 54.2891 3.70819 54.0011V47.6651ZM7.74019 67.9691C7.30819 69.6971 6.92419 71.2331 6.92419 72.8651C6.92419 75.8891 9.90019 78.1451 16.8122 78.1451C23.2442 78.1451 29.3882 77.4251 33.6602 76.2251L33.7082 82.9931C29.4842 83.9531 23.7242 84.5771 17.0042 84.5771C6.06019 84.5771 0.492188 80.9291 0.492188 74.3051C0.492188 71.5691 1.11619 69.2171 1.45219 67.3931L7.74019 67.9691ZM68.9882 46.8971C68.4602 47.5211 67.9802 48.3371 67.4522 49.1531C65.0522 52.5611 61.6922 58.7051 59.3402 62.9771C61.1162 61.9211 62.9882 61.4891 64.8122 61.4891C68.4122 61.4891 70.5722 63.7451 70.7642 67.7771C70.8602 69.8891 70.7642 73.7291 71.0042 75.7451C71.1962 77.6171 72.4922 78.3851 74.0762 78.3851C78.2522 78.3851 80.8442 72.9611 82.1882 67.0091L87.4202 71.2331C84.8762 79.4891 80.4602 84.9611 73.0682 84.9611C67.7402 84.9611 65.2922 81.7451 65.0522 78.2891C64.9082 75.6971 64.9082 71.8091 64.7642 69.8411C64.6202 68.1611 63.7082 67.1531 61.9802 67.1531C58.7162 67.1531 55.9802 70.5131 54.3002 74.4011C53.0042 77.1851 51.3722 82.5611 50.6522 85.1051L43.8842 82.8011C47.3882 73.2011 57.2282 53.6171 59.8202 49.0091C60.3962 47.7611 61.3082 46.1771 62.1722 44.1611L68.9882 46.8971ZM93.2282 51.0731C95.2922 51.3131 97.8842 51.4091 99.6122 51.4091C105.564 51.4091 112.044 50.4011 116.7 48.9131L116.844 54.4811C112.716 55.6331 105.804 56.8811 99.6602 56.8331C97.7402 56.8331 95.7242 56.7851 93.6602 56.6891L93.2282 51.0731ZM111.9 43.8731C111.276 46.4171 110.124 51.1211 108.828 55.2011C106.62 62.1131 102.3 71.0411 98.2202 76.7051L92.4122 73.7291C96.7322 68.4491 101.052 60.0491 102.924 54.8651C104.076 51.4091 105.132 46.9451 105.276 43.2491L111.9 43.8731ZM123.18 58.8491C123.036 60.8651 123.084 62.8811 123.132 64.9931C123.228 67.8251 123.66 74.9771 123.66 77.6651C123.66 82.1291 121.26 85.6331 114.396 85.6331C108.444 85.6331 103.74 82.9451 103.74 77.6651C103.74 73.0091 107.676 69.3611 114.348 69.3611C122.748 69.3611 129.372 73.5851 133.356 77.1851L130.188 82.3691C126.732 79.1531 121.26 74.2091 114.012 74.2091C111.228 74.2091 109.404 75.4091 109.404 77.0891C109.404 78.8651 110.94 80.1131 113.58 80.1131C116.844 80.1131 117.9 78.2891 117.9 75.6011C117.9 72.7211 117.372 63.8891 117.132 58.8491H123.18ZM131.436 61.3931C128.652 59.1371 123.18 56.0171 119.868 54.5291L122.988 49.8251C126.444 51.3131 132.348 54.5291 134.844 56.3051L131.436 61.3931ZM139.5 49.4411H183.036V54.9611H139.5V49.4411ZM155.532 61.2011H173.916V66.6731H155.532V61.2011ZM171.804 61.2011H177.756C177.756 61.2011 177.708 62.9291 177.564 63.6971C176.7 76.8491 175.692 82.2731 173.772 84.3851C172.332 85.9211 170.796 86.4011 168.588 86.6411C166.764 86.7851 163.548 86.7371 160.332 86.6411C160.236 84.9611 159.372 82.5611 158.268 80.9771C161.58 81.2651 164.988 81.2651 166.38 81.2651C167.436 81.2651 168.108 81.2171 168.732 80.6891C170.172 79.4411 171.084 73.9691 171.756 62.1131L171.804 61.2011ZM153.372 52.7051H159.852C159.132 65.5691 157.836 79.5851 142.764 87.1691C141.9 85.6331 140.172 83.5211 138.636 82.3211C152.604 75.8411 152.892 63.6491 153.372 52.7051ZM158.028 41.5211H163.98V51.6011H158.028V41.5211ZM206.748 48.9611C212.652 49.7771 222.252 49.5371 227.388 48.9131V55.1051C221.532 55.6811 212.796 55.6811 206.796 55.1051L206.748 48.9611ZM210.588 69.4571C210.204 71.0891 210.012 72.2411 210.012 73.4891C210.012 75.6491 211.884 76.9451 216.78 76.9451C221.052 76.9451 224.604 76.5611 228.78 75.6491L228.924 82.1291C225.804 82.7531 221.916 83.0891 216.492 83.0891C208.236 83.0891 204.252 80.1131 204.252 75.2171C204.252 73.2971 204.54 71.4251 205.116 68.9771L210.588 69.4571ZM199.356 45.7451C199.02 46.7531 198.396 49.2011 198.204 50.0651C197.532 53.2331 195.852 62.8331 195.852 67.6331C195.852 68.5931 195.9 69.7931 196.044 70.7531C196.764 69.1211 197.532 67.4891 198.252 65.8571L201.228 68.2091C199.836 72.2411 198.252 77.4251 197.772 79.9691C197.628 80.6891 197.484 81.7451 197.484 82.2251C197.532 82.7531 197.532 83.5691 197.58 84.2411L192.06 84.5771C191.1 81.3131 190.188 75.4571 190.188 68.9291C190.188 61.6811 191.628 53.6171 192.156 49.8731C192.348 48.5771 192.588 46.7531 192.636 45.2171L199.356 45.7451ZM289.38 16.8311C288.97 19.4551 288.806 22.5711 288.888 25.1951C289.134 38.7251 289.708 61.2751 289.872 77.8391C289.954 83.0871 286.92 86.1211 280.688 86.1211C275.686 86.1211 271.176 85.9571 266.502 85.6291L265.518 74.9691C269.29 75.5431 273.718 75.8711 276.506 75.8711C278.556 75.8711 279.294 74.8051 279.294 72.5091C279.294 61.1931 279.13 38.7251 278.474 25.1951C278.228 21.6691 278.064 19.0451 277.654 16.8311H289.38ZM242.558 30.5251C244.854 30.7711 248.79 31.0991 251.578 31.0991C257.318 31.0991 295.202 31.0991 299.22 31.0991C301.844 31.0991 305.698 30.6891 307.666 30.4431V41.2671C305.124 41.1851 301.926 41.1031 299.712 41.1031C296.514 41.1031 256.416 41.1031 251.906 41.1031C248.872 41.1031 245.428 41.2671 242.558 41.4311V30.5251ZM238.13 69.5571C255.268 61.3571 269.618 48.7291 275.522 39.0531H280.852L280.934 47.8271C274.292 57.7491 259.778 70.6231 245.674 78.0851L238.13 69.5571ZM383.598 26.9991C382.942 27.9011 381.466 30.3611 380.728 32.0831C377.366 39.8731 371.298 51.0251 364.246 59.2251C355.062 69.8031 342.68 79.9711 329.97 85.9571L321.442 77.1011C334.726 72.1811 347.354 62.1771 355.062 53.6491C360.474 47.4991 365.476 39.3811 367.362 33.5591C363.918 33.5591 343.008 33.5591 339.482 33.5591C336.12 33.5591 331.61 33.9691 329.806 34.1331V22.4071C332.02 22.7351 337.104 22.9811 339.482 22.9811C343.828 22.9811 364.82 22.9811 368.428 22.9811C372.036 22.9811 375.234 22.5711 376.956 21.9971L383.598 26.9991ZM365.312 52.4191C373.758 59.3071 385.402 71.5251 390.732 78.0851L381.384 86.2031C375.316 77.7571 366.378 67.9991 357.604 60.0451L365.312 52.4191ZM465.598 26.9991C464.942 27.9011 463.466 30.3611 462.728 32.0831C459.366 39.8731 453.298 51.0251 446.246 59.2251C437.062 69.8031 424.68 79.9711 411.97 85.9571L403.442 77.1011C416.726 72.1811 429.354 62.1771 437.062 53.6491C442.474 47.4991 447.476 39.3811 449.362 33.5591C445.918 33.5591 425.008 33.5591 421.482 33.5591C418.12 33.5591 413.61 33.9691 411.806 34.1331V22.4071C414.02 22.7351 419.104 22.9811 421.482 22.9811C425.828 22.9811 446.82 22.9811 450.428 22.9811C454.036 22.9811 457.234 22.5711 458.956 21.9971L465.598 26.9991ZM447.312 52.4191C455.758 59.3071 467.402 71.5251 472.732 78.0851L463.384 86.2031C457.316 77.7571 448.378 67.9991 439.604 60.0451L447.312 52.4191ZM548.418 22.2431C547.27 24.1291 545.712 27.7371 544.974 29.7051C541.858 37.8231 536.856 48.6471 530.05 57.5031C522.424 67.3431 512.338 77.9211 496.43 86.6951L487.328 78.3311C502.252 71.1971 512.502 62.0951 521.194 50.7791C527.672 42.2511 531.362 33.8051 534.232 25.6051C534.97 23.4731 535.79 20.1111 536.2 18.0611L548.418 22.2431ZM503.318 30.1971C511.436 35.2811 522.67 43.0711 529.558 48.4831C538.332 55.2891 546.942 62.9971 553.584 70.0491L545.138 79.4791C538.004 71.1151 530.788 64.3911 522.096 57.1751C516.192 52.2551 506.598 44.8751 496.266 38.5611L503.318 30.1971ZM598.028 61.4391L595.896 33.3951L595.486 21.1771H609.016L608.606 33.3951L606.474 61.4391H598.028ZM602.292 83.3331C598.028 83.3331 594.994 80.2991 594.994 76.0351C594.994 71.7711 598.11 68.8191 602.292 68.8191C606.392 68.8191 609.508 71.7711 609.508 76.0351C609.508 80.2991 606.392 83.3331 602.292 83.3331Z" fill="#1E547D"/>
</g>
<defs>
<clipPath id="clip0_306_773">
<rect width="609.016" height="102.338" fill="white" transform="translate(0.492188 0.831055)"/>
</clipPath>
</defs>
</svg>
