<svg width="202" height="53" viewBox="0 0 202 53" fill="none" xmlns="http://www.w3.org/2000/svg">
<g clip-path="url(#clip0_484_38272)">
<path d="M176.286 0.829102H25.7131C11.64 0.829102 0.231445 12.2377 0.231445 26.3109C0.231445 40.3841 11.64 51.7927 25.7131 51.7927H176.286C190.36 51.7927 201.768 40.3841 201.768 26.3109C201.768 12.2377 190.36 0.829102 176.286 0.829102Z" fill="url(#paint0_linear_484_38272)"/>
<path d="M40.6639 19.0371H49.1331V21.1312H40.6639V19.0371ZM48.3363 19.0371H50.6157C50.6157 19.0371 50.6157 19.8711 50.5972 20.1676C50.4118 29.4707 50.2265 32.7324 49.5223 33.7331C49.0405 34.4744 48.5586 34.7154 47.8729 34.8636C47.1873 34.9933 46.1679 34.9748 45.1672 34.9377C45.1301 34.3076 44.8522 33.3069 44.463 32.6397C45.4452 32.7324 46.2977 32.7324 46.7425 32.7324C47.0575 32.7324 47.2429 32.6397 47.4467 32.3618C48.0027 31.7131 48.188 28.3403 48.3363 19.5745V19.0371ZM43.3696 20.0008H45.649C45.5193 25.7458 45.2599 31.6575 40.8122 35.0304C40.423 34.4374 39.7373 33.6961 39.1443 33.2884C43.2769 30.3788 43.2769 25.1157 43.3696 20.0008ZM36.2533 27.1727L38.4401 24.5597V35.0119H36.2533V27.1727ZM33.8441 20.9089H39.3852V22.8918H33.8441V20.9089ZM36.2533 17.6287H38.4401V21.9837H36.2533V17.6287ZM38.2177 25.7643C38.8292 26.2461 40.8492 28.1735 41.3311 28.6553L40.0153 30.3603C39.3481 29.3781 37.8285 27.5805 37.0501 26.7836L38.2177 25.7643ZM38.7736 20.9089H39.1999L39.589 20.7977L40.8307 21.6316C39.4964 25.2083 36.9019 28.6924 34.4742 30.6012C34.2703 30.0452 33.6773 28.9518 33.3252 28.5627C35.5676 27.006 37.8285 24.0223 38.7736 21.3351V20.9089ZM40.3859 24.43L41.8129 25.616C41.016 26.3573 40.3489 27.2098 39.7744 27.7472L38.7551 26.8577C39.274 26.2276 40.0153 25.1527 40.3859 24.43Z" fill="white"/>
<path d="M60.1409 24.6338V27.8399H63.4211V24.6338H60.1409ZM58.0468 22.688H65.645V29.7673H58.0468V22.688ZM53.9697 18.2402H69.8703V35.0119H67.4611V20.5012H56.2677V35.0119H53.9697V18.2402ZM55.267 31.9355H68.8325V34.0111H55.267V31.9355Z" fill="white"/>
<path d="M80.5262 26.3757H82.8427V32.6025C82.8427 33.7515 82.5647 34.3446 81.6937 34.6411C80.8227 34.9561 79.6181 34.9932 78.0243 34.9932C77.8946 34.3631 77.524 33.4365 77.2089 32.8435C78.3023 32.8991 79.6922 32.8991 80.0629 32.8805C80.415 32.862 80.5262 32.8064 80.5262 32.5284V26.3757ZM74.948 18.6478H86.3267V20.6863H74.948V18.6478ZM85.4928 18.6478H86.0858L86.5862 18.5181L88.1799 19.7783C86.6047 21.335 84.4179 23.0955 82.435 24.1889C82.1385 23.7441 81.4713 23.0585 81.1007 22.7063C82.713 21.7983 84.6588 20.186 85.4928 19.1296V18.6478ZM73.1504 24.6893H88.2911V26.802H73.1504V24.6893ZM77.5425 23.0585L78.6544 21.3906C80.6744 22.0762 83.862 23.2438 85.4742 23.9665L84.2882 25.8754C82.7871 25.1341 79.6737 23.8553 77.5425 23.0585ZM87.5498 24.6893H87.9761L88.3653 24.541L90.1814 25.3194C89.366 27.0614 88.2541 28.9332 87.1977 30.1748L85.3075 29.0814C86.0858 28.0436 87.0309 26.4128 87.5498 25.0599V24.6893Z" fill="white"/>
<path d="M101.079 26.0052L102.858 25.0971C103.822 26.3758 104.878 28.0993 105.286 29.2854L103.34 30.2861C103.006 29.1371 102.024 27.3395 101.079 26.0052ZM101.691 20.7606H108.344V22.8547H101.691V20.7606ZM107.399 20.7606H109.548C109.548 20.7606 109.548 21.5018 109.53 21.7798C109.252 29.9525 109.011 32.8992 108.232 33.8814C107.714 34.5856 107.213 34.7894 106.435 34.9192C105.749 35.0118 104.619 35.0118 103.525 34.9562C103.488 34.3261 103.192 33.3625 102.784 32.7324C103.952 32.825 105.026 32.825 105.508 32.825C105.879 32.825 106.101 32.7694 106.305 32.51C106.917 31.8799 107.176 28.7479 107.399 21.2053V20.7606ZM101.802 17.5916L104.1 18.0919C103.321 20.8532 102.043 23.5775 100.634 25.2639C100.19 24.8932 99.2073 24.2261 98.6513 23.911C100.06 22.447 101.19 20.0193 101.802 17.5916ZM95.2785 17.6286L97.2429 18.3143C96.4831 19.7598 95.6121 21.4092 94.8893 22.4285L93.3882 21.8169C94.0554 20.705 94.8523 18.9259 95.2785 17.6286ZM97.5024 19.8154L99.3741 20.5938C98.0027 22.725 96.1866 25.3009 94.7596 26.8762L93.4068 26.1905C94.8337 24.5226 96.5202 21.7984 97.5024 19.8154ZM92.4246 22.0207L93.4624 20.4826C94.4631 21.3351 95.6121 22.5211 96.0939 23.3365L94.9635 25.0786C94.5002 24.189 93.3697 22.9103 92.4246 22.0207ZM97.039 24.2817L98.6143 23.596C99.3556 24.8376 100.097 26.4499 100.338 27.5248L98.6513 28.3032C98.429 27.2468 97.7433 25.5604 97.039 24.2817ZM92.406 25.7828C94.1295 25.7272 96.6869 25.616 99.1702 25.4863V27.2468C96.8352 27.4322 94.426 27.5989 92.5913 27.7101L92.406 25.7828ZM97.3726 28.9333L99.0035 28.3958C99.4853 29.5078 99.9857 30.9533 100.208 31.8984L98.466 32.5285C98.2992 31.5648 97.8174 30.0637 97.3726 28.9333ZM93.2029 28.507L95.0376 28.8221C94.8523 30.6012 94.4446 32.4544 93.9071 33.6404C93.518 33.3995 92.684 33.0103 92.2207 32.825C92.7581 31.7316 93.0546 30.0823 93.2029 28.507ZM95.3526 26.765H97.3356V35.0304H95.3526V26.765Z" fill="white"/>
<path d="M120.176 28.8157C120.713 28.8713 121.241 28.8991 121.807 28.8991C122.937 28.8991 124.095 28.8065 125.059 28.6026V29.7516C124.086 29.8999 122.919 29.974 121.807 29.9833C121.26 29.9833 120.732 29.9647 120.185 29.9277L120.176 28.8157ZM123.706 27.259C123.678 27.4351 123.66 27.6575 123.651 27.8521C123.632 28.1578 123.614 28.7972 123.614 29.4644C123.614 31.1693 123.762 32.3739 123.762 33.2542C123.762 34.2271 123.28 34.9314 121.946 34.9314C120.658 34.9314 119.861 34.4032 119.861 33.4302C119.861 32.4851 120.658 31.8365 121.927 31.8365C123.669 31.8365 124.79 32.7075 125.513 33.3746L124.883 34.3476C123.817 33.3561 122.882 32.7353 121.834 32.7353C121.306 32.7353 120.945 32.9484 120.945 33.3005C120.945 33.6804 121.316 33.8472 121.816 33.8472C122.381 33.8472 122.576 33.5507 122.576 33.004C122.576 32.3646 122.455 30.8079 122.455 29.4736C122.455 28.7694 122.446 28.1486 122.437 27.8706C122.437 27.7223 122.409 27.4351 122.381 27.259H123.706ZM119.184 27.3517C119.11 27.537 118.999 28.0188 118.962 28.1856C118.823 28.8065 118.517 30.845 118.517 31.7716C118.517 31.9477 118.526 32.1886 118.554 32.3739C118.684 32.0496 118.842 31.7345 118.971 31.4195L119.546 31.8735C119.286 32.6426 118.981 33.5785 118.879 34.0881C118.851 34.2179 118.823 34.4218 118.832 34.5144C118.832 34.6163 118.832 34.7738 118.842 34.9036L117.794 34.9777C117.609 34.3384 117.424 33.2727 117.424 32.0218C117.424 30.6226 117.702 28.8713 117.813 28.1578C117.85 27.8984 117.887 27.537 117.896 27.2498L119.184 27.3517Z" fill="white"/>
<path d="M127.84 27.7778C128.525 27.8519 129.387 27.889 130.369 27.889C131.277 27.889 132.343 27.8334 133.047 27.7593V28.9917C132.398 29.0473 131.259 29.1029 130.369 29.1029C129.406 29.1029 128.599 29.0565 127.84 29.0009V27.7778ZM128.618 31.6974C128.535 32.031 128.46 32.3275 128.46 32.6425C128.46 33.2263 129.035 33.6618 130.369 33.6618C131.611 33.6618 132.797 33.5228 133.622 33.2911L133.631 34.5977C132.815 34.783 131.704 34.9034 130.406 34.9034C128.294 34.9034 127.219 34.1992 127.219 32.9205C127.219 32.3923 127.339 31.9383 127.404 31.5862L128.618 31.6974Z" fill="white"/>
<path d="M139.283 27.12C139.19 27.4536 139.134 27.7687 139.06 28.0652C138.912 28.8065 138.634 30.1686 138.356 31.0303C139.107 30.6226 139.829 30.4558 140.663 30.4558C142.155 30.4558 143.156 31.2435 143.156 32.4388C143.156 34.5144 141.145 35.2742 138.143 34.9499L137.819 33.7546C139.857 34.0789 141.905 33.838 141.905 32.4666C141.905 31.9199 141.423 31.4473 140.515 31.4473C139.449 31.4473 138.504 31.8365 137.958 32.5407C137.856 32.6704 137.782 32.7816 137.698 32.9392L136.605 32.5593C137.29 31.2064 137.809 28.9547 137.93 28.0003C137.976 27.6112 137.985 27.3702 137.967 27.0645L139.283 27.12ZM136.049 28.2042C136.651 28.3061 137.392 28.3802 137.967 28.3802C139.153 28.3802 140.914 28.2412 142.433 27.9169L142.461 29.0289C141.284 29.2235 139.32 29.4458 137.976 29.4458C137.272 29.4458 136.605 29.4088 136.058 29.3532L136.049 28.2042Z" fill="white"/>
<path d="M147.446 27.0459C148.327 27.3239 150.347 27.6853 151.162 27.7687L150.884 28.9084C149.939 28.7787 147.882 28.3524 147.159 28.1671L147.446 27.0459ZM147.511 28.9084C147.381 29.4273 147.224 30.5485 147.159 31.0859C147.993 30.4744 148.92 30.1964 149.892 30.1964C151.514 30.1964 152.459 31.1971 152.459 32.3183C152.459 34.014 151.116 35.3113 147.27 34.9777L146.909 33.7638C149.698 34.153 151.162 33.4766 151.162 32.2905C151.162 31.6882 150.597 31.2527 149.781 31.2527C148.734 31.2527 147.798 31.6419 147.215 32.3461C147.048 32.5407 146.946 32.689 146.872 32.8743L145.797 32.6148C145.982 31.7067 146.205 29.8906 146.26 28.7416L147.511 28.9084Z" fill="white"/>
<mask id="mask0_484_38272" style="mask-type:luminance" maskUnits="userSpaceOnUse" x="160" y="20" width="9" height="13">
<path d="M168.674 20.2878H160.335V32.3338H168.674V20.2878Z" fill="white"/>
</mask>
<g mask="url(#mask0_484_38272)">
<path d="M167.979 26.9262L163.056 31.8488C162.695 32.2108 162.152 32.2108 161.826 31.8488L160.993 31.0525C160.668 30.6905 160.668 30.1476 160.993 29.8218L164.504 26.347L160.993 22.8361C160.668 22.5103 160.668 21.9674 160.993 21.6054L161.826 20.7729C162.152 20.4471 162.695 20.4471 163.056 20.7729L167.979 25.6955C168.305 26.0575 168.305 26.6004 167.979 26.9262Z" fill="white"/>
</g>
<path d="M176.286 0.829102H25.7131C11.64 0.829102 0.231445 12.2377 0.231445 26.3109C0.231445 40.3841 11.64 51.7927 25.7131 51.7927H176.286C190.36 51.7927 201.768 40.3841 201.768 26.3109C201.768 12.2377 190.36 0.829102 176.286 0.829102Z" stroke="white"/>
</g>
<defs>
<linearGradient id="paint0_linear_484_38272" x1="78.298" y1="-6.12048" x2="142.697" y2="57.352" gradientUnits="userSpaceOnUse">
<stop stop-color="#05E5BE"/>
<stop offset="1" stop-color="#3DA9FC"/>
</linearGradient>
<clipPath id="clip0_484_38272">
<rect width="202" height="51.4269" fill="white" transform="translate(0 0.597412)"/>
</clipPath>
</defs>
</svg>
