<svg width="898" height="248" viewBox="0 0 898 248" fill="none" xmlns="http://www.w3.org/2000/svg">
<g clip-path="url(#clip0_496_41858)">
<mask id="mask0_496_41858" style="mask-type:luminance" maskUnits="userSpaceOnUse" x="0" y="0" width="898" height="248">
<path d="M898 0H0V248H898V0Z" fill="white"/>
</mask>
<g mask="url(#mask0_496_41858)">
<mask id="mask1_496_41858" style="mask-type:luminance" maskUnits="userSpaceOnUse" x="0" y="0" width="898" height="40">
<path d="M0 5C0 2.23858 2.23858 0 5 0H893C895.761 0 898 2.23858 898 5V40H0V5Z" fill="white"/>
</mask>
<g mask="url(#mask1_496_41858)">
<path d="M100 0H0V40H100V0Z" fill="#133E5F"/>
<path d="M30.2717 10.1676H42.5357V12.6636H30.2717V10.1676ZM29.4557 14.7756H43.2557V17.3196H29.4557V14.7756ZM29.5037 19.3596H43.0877V21.8796H29.5037V19.3596ZM34.9037 7.59961H37.7357V16.4076H34.9037V7.59961ZM37.9517 17.1756H40.7597V27.1116C40.7597 28.5036 40.4957 29.2476 39.5597 29.6556C38.5997 30.0876 37.3037 30.1356 35.5037 30.1356C35.4077 29.3436 34.9757 28.1916 34.5917 27.4476C35.7677 27.4956 37.0877 27.4956 37.4477 27.4716C37.8317 27.4716 37.9517 27.3996 37.9517 27.0636V17.1756ZM30.4637 23.4876L32.7677 22.1676C33.8957 23.3436 35.1677 24.9276 35.6957 26.1036L33.2237 27.5436C32.7677 26.4156 31.5677 24.7116 30.4637 23.4876ZM22.8557 9.08761H29.0477V25.5036H22.8557V22.9356H26.3597V11.6556H22.8557V9.08761ZM22.9997 15.9036H27.6557V18.4236H22.9997V15.9036ZM21.5117 9.08761H24.1757V27.6396H21.5117V9.08761ZM64.6877 22.2636H71.2637V24.3276H64.6877V22.2636ZM64.5197 18.7116H72.6077V27.9276H64.5197V25.8156H69.9197V20.8236H64.5197V18.7116ZM63.3437 18.7116H65.9357V29.1516H63.3437V18.7116ZM59.3117 11.8716H65.3357V13.8156H59.3117V11.8716ZM70.4477 11.8716H76.5197V13.8156H70.4477V11.8716ZM75.3437 8.53561H78.2477V26.7516C78.2477 28.3116 77.9357 29.1516 76.9757 29.6316C76.0157 30.1116 74.6237 30.1596 72.5597 30.1596C72.4397 29.3436 72.0077 27.9996 71.6237 27.2316C72.8717 27.3036 74.3357 27.2796 74.7677 27.2796C75.1997 27.2796 75.3437 27.1356 75.3437 26.7276V8.53561ZM59.5517 8.53561H67.1357V17.2476H59.5517V15.1836H64.4477V10.6236H59.5517V8.53561ZM76.8797 8.53561V10.6236H71.5037V15.2556H76.8797V17.3196H68.7677V8.53561H76.8797ZM57.8957 8.53561H60.7517V30.1596H57.8957V8.53561Z" fill="#E2E7EB"/>
<path d="M500 0H100V40H500V0Z" fill="#133E5F"/>
<path d="M274.464 18.303L276.648 16.719C278.784 18.639 281.688 21.375 283.104 23.175L280.704 25.023C279.432 23.223 276.624 20.343 274.464 18.303ZM274.536 7.62305H277.488V13.383C277.488 17.367 276.48 22.287 271.008 25.551C270.6 24.927 269.616 23.871 268.944 23.367C274.128 20.703 274.536 16.503 274.536 13.359V7.62305ZM266.112 11.607H284.352V14.439H268.992V30.207H266.112V11.607ZM283.08 11.607H285.936V26.871C285.936 28.431 285.6 29.223 284.616 29.703C283.608 30.159 282.072 30.183 279.936 30.183C279.84 29.391 279.384 28.071 279 27.327C280.416 27.399 282.024 27.399 282.48 27.399C282.936 27.375 283.08 27.231 283.08 26.823V11.607ZM319.608 12.639L322.392 13.551C320.904 15.735 318.48 17.799 316.248 19.047C315.84 18.471 314.832 17.295 314.256 16.767C316.344 15.807 318.432 14.271 319.608 12.639ZM325.464 14.247L327.48 12.591C329.496 13.767 332.208 15.615 333.528 16.959L331.344 18.855C330.144 17.535 327.528 15.567 325.464 14.247ZM324.096 18.255C322.176 20.727 318.432 23.511 314.592 25.191C314.256 24.495 313.536 23.391 312.984 22.767C316.92 21.207 320.688 18.207 322.488 15.639H325.44C327.984 18.759 331.704 21.159 335.376 22.359C334.704 23.103 334.056 24.159 333.576 24.999C330.168 23.511 326.136 20.775 324.096 18.255ZM317.256 21.879H330.888V30.135H327.96V24.399H320.04V30.159H317.256V21.879ZM318.552 26.967H329.424V29.487H318.552V26.967ZM322.44 7.62305H325.416V11.031H322.44V7.62305ZM313.704 9.54305H334.296V14.727H331.344V12.135H316.512V14.727H313.704V9.54305Z" fill="#E2E7EB"/>
<path d="M898 0H500V40H898V0Z" fill="#133E5F"/>
<path d="M624.036 7.74473H626.7V30.1127H624.036V7.74473ZM620.412 15.6167H630.252V18.3047H620.412V15.6167ZM623.532 17.0567L625.116 17.8247C624.348 21.0407 622.86 25.2167 621.276 27.5207C621.012 26.6327 620.388 25.3607 619.956 24.5447C621.396 22.7687 622.86 19.4327 623.532 17.0567ZM626.652 18.4487C627.348 19.0727 629.676 21.8567 630.204 22.5287L628.428 24.7847C627.804 23.4167 626.196 20.7527 625.332 19.5767L626.652 18.4487ZM620.364 9.59273L622.38 9.06473C623.004 10.8167 623.484 13.0967 623.604 14.6087L621.444 15.1847C621.396 13.6727 620.94 11.3447 620.364 9.59273ZM628.284 8.94473L630.708 9.47273C630.084 11.4167 629.364 13.6967 628.764 15.1127L626.964 14.6087C627.444 13.0727 628.02 10.6487 628.284 8.94473ZM637.356 7.60073H640.068V30.1367H637.356V7.60073ZM630.18 22.6247L642.516 20.4167L642.948 23.0807L630.636 25.3127L630.18 22.6247ZM631.548 10.8887L632.964 8.92073C634.308 9.73673 636.012 10.9367 636.804 11.8247L635.292 14.0087C634.572 13.0727 632.892 11.7527 631.548 10.8887ZM630.468 16.9367L631.812 14.8727C633.204 15.6167 635.004 16.7687 635.868 17.6567L634.428 19.9367C633.612 19.0487 631.86 17.7527 630.468 16.9367ZM679.404 10.3607C677.412 13.1687 673.74 16.3127 669.804 18.4007C669.444 17.7287 668.628 16.6727 668.004 16.0727C672.132 14.0567 675.996 10.4567 677.772 7.55273H680.772C683.364 11.2007 687.228 14.2247 691.044 15.7847C690.348 16.5047 689.676 17.4887 689.148 18.3767C685.476 16.4327 681.468 13.1927 679.404 10.3607ZM673.38 14.8247H685.476V17.3447H673.38V14.8247ZM670.524 19.7207H688.308V22.1927H670.524V19.7207ZM669.3 27.0167H689.7V29.4887H669.3V27.0167ZM677.82 15.8327H680.892V28.2407H677.82V15.8327ZM672.012 23.1047L674.34 22.1447C675.252 23.3687 676.212 25.0247 676.572 26.1527L674.076 27.2327C673.764 26.1287 672.876 24.3767 672.012 23.1047ZM684.228 22.1687L686.964 23.2007C685.98 24.6647 684.924 26.2247 684.084 27.2327L681.924 26.3447C682.692 25.2167 683.7 23.4647 684.228 22.1687Z" fill="#E2E7EB"/>
<path d="M710.5 21.4004C710.5 17.5004 712.08 14.3404 714.48 11.9004L715.68 12.5204C713.36 14.9004 711.94 17.8404 711.94 21.4004C711.94 24.9804 713.36 27.9204 715.68 30.3004L714.48 30.9204C712.08 28.4804 710.5 25.3204 710.5 21.4004ZM726.36 12.7804L727.62 12.2404C728.36 13.3004 729.14 14.7004 729.42 15.6204L728.1 16.2404C727.84 15.3004 727.1 13.8404 726.36 12.7804ZM733.8 12.2004L735.32 12.7404C734.66 13.9404 733.9 15.3004 733.24 16.1804L731.98 15.6804C732.62 14.7404 733.4 13.2604 733.8 12.2004ZM728.24 22.4404H729.74C729.38 26.0004 728.48 29.0404 724.88 30.6404C724.7 30.2804 724.26 29.7604 723.96 29.4804C727.22 28.1204 727.96 25.4404 728.24 22.4404ZM731.38 22.2604H732.84V28.4004C732.84 28.9204 732.92 29.0004 733.32 29.0004C733.52 29.0004 734.44 29.0004 734.68 29.0004C735.1 29.0004 735.18 28.6804 735.22 26.5004C735.52 26.7404 736.14 27.0004 736.54 27.1004C736.4 29.6804 736.02 30.3604 734.84 30.3604C734.56 30.3604 733.4 30.3604 733.12 30.3604C731.72 30.3604 731.38 29.9204 731.38 28.4204V22.2604ZM727.58 17.5804V21.4804H733.9V17.5804H727.58ZM726.16 16.2404H735.4V22.8204H726.16V16.2404ZM721.44 13.8604H722.9V30.5604H721.44V13.8604ZM718.16 17.8404H725.42V19.2604H718.16V17.8404ZM721.52 18.3804L722.46 18.7804C721.66 21.6004 720.06 25.1004 718.52 26.9604C718.38 26.5404 718.02 25.9204 717.76 25.5804C719.2 23.9804 720.8 20.8604 721.52 18.3804ZM724.4 12.5004L725.46 13.6604C723.62 14.4004 720.82 14.9604 718.5 15.2804C718.42 14.9404 718.22 14.4604 718.04 14.1204C720.3 13.7404 722.94 13.1804 724.4 12.5004ZM722.84 20.4204C723.34 20.8604 725.22 22.7604 725.62 23.2604L724.74 24.4404C724.26 23.6204 722.76 21.7204 722.14 21.0204L722.84 20.4204ZM745.9 13.2204H750.08V14.6404H745.9V13.2204ZM749.16 13.2204H750.82C751.3 19.3604 752.84 24.1204 756.88 26.2004C756.52 26.4404 755.98 26.9804 755.68 27.3204C751.62 24.9804 750.04 20.1404 749.5 13.9604H749.16V13.2204ZM749.24 17.1004L750.78 17.3204C749.84 21.8604 747.98 25.2204 745 27.3404C744.76 27.0604 744.16 26.4804 743.82 26.2204C746.76 24.3604 748.46 21.2004 749.24 17.1004ZM743.02 20.1004V27.1804H741.56V21.5004H738.76V20.1004H743.02ZM743.02 26.5204C743.96 28.0004 745.74 28.6804 748.04 28.7804C750.22 28.8604 754.72 28.8004 757.08 28.6404C756.92 29.0004 756.66 29.7204 756.6 30.1804C754.4 30.2604 750.26 30.3004 748.04 30.2204C745.44 30.1204 743.64 29.4204 742.36 27.8404C741.4 28.7004 740.38 29.5604 739.3 30.4404L738.5 28.9004C739.46 28.2604 740.64 27.3804 741.66 26.5204H743.02ZM738.98 13.6004L740.08 12.7004C741.4 13.5404 742.9 14.8404 743.6 15.8204L742.42 16.8004C741.78 15.8404 740.28 14.4804 738.98 13.6004ZM764.48 21.4004C764.48 25.3204 762.9 28.4804 760.5 30.9204L759.3 30.3004C761.62 27.9204 763.04 24.9804 763.04 21.4004C763.04 17.8404 761.62 14.9004 759.3 12.5204L760.5 11.9004C762.9 14.3404 764.48 17.5004 764.48 21.4004Z" fill="#E2E7EB"/>
</g>
<mask id="mask2_496_41858" style="mask-type:luminance" maskUnits="userSpaceOnUse" x="0" y="40" width="898" height="52">
<path d="M0 40H898V92H0V40Z" fill="white"/>
</mask>
<g mask="url(#mask2_496_41858)">
<path d="M100 40H0V92H100V40Z" fill="#F5F6F8"/>
<path d="M39.502 67.9317V69.8067H29.248L29.1699 68.3907L35.3027 58.7813H37.1875L35.1465 62.2774L31.6211 67.9317H39.502ZM37.7246 58.7813V73.0001H35.3711V58.7813H37.7246ZM50.3418 64.6993V67.0235C50.3418 68.1368 50.2311 69.0873 50.0098 69.8751C49.7949 70.6563 49.4824 71.2911 49.0723 71.7794C48.6621 72.2677 48.1706 72.6258 47.5977 72.8536C47.0312 73.0815 46.3965 73.1954 45.6934 73.1954C45.1335 73.1954 44.6126 73.1238 44.1309 72.9806C43.6556 72.8373 43.2259 72.6127 42.8418 72.3067C42.4577 72.0008 42.1289 71.6069 41.8555 71.1251C41.5885 70.6368 41.3802 70.0541 41.2305 69.3771C41.0872 68.7 41.0156 67.9155 41.0156 67.0235V64.6993C41.0156 63.5795 41.1263 62.6355 41.3477 61.8673C41.569 61.0925 41.8848 60.4643 42.2949 59.9825C42.7051 59.4942 43.1934 59.1394 43.7598 58.9181C44.3327 58.6967 44.9707 58.586 45.6738 58.586C46.2402 58.586 46.7611 58.6577 47.2363 58.8009C47.7181 58.9376 48.1478 59.1557 48.5254 59.4552C48.9095 59.7547 49.235 60.1453 49.502 60.6271C49.7754 61.1023 49.9837 61.6785 50.127 62.3556C50.2702 63.0261 50.3418 63.8074 50.3418 64.6993ZM47.9883 67.3556V64.3478C47.9883 63.7813 47.9557 63.2833 47.8906 62.8536C47.8255 62.4174 47.7279 62.0496 47.5977 61.7501C47.474 61.4441 47.3177 61.1967 47.1289 61.0079C46.9401 60.8126 46.7253 60.6726 46.4844 60.588C46.2435 60.4968 45.9733 60.4513 45.6738 60.4513C45.3092 60.4513 44.9837 60.5229 44.6973 60.6661C44.4108 60.8028 44.1699 61.0242 43.9746 61.3302C43.7793 61.6362 43.6296 62.0398 43.5254 62.5411C43.4277 63.0359 43.3789 63.6381 43.3789 64.3478V67.3556C43.3789 67.9285 43.4115 68.433 43.4766 68.8692C43.5417 69.3054 43.6393 69.6798 43.7695 69.9923C43.8997 70.2983 44.056 70.5522 44.2383 70.754C44.4271 70.9493 44.6419 71.0925 44.8828 71.1837C45.1302 71.2748 45.4004 71.3204 45.6934 71.3204C46.0645 71.3204 46.3932 71.2488 46.6797 71.1056C46.9661 70.9623 47.207 70.7345 47.4023 70.422C47.5977 70.103 47.7441 69.6896 47.8418 69.1817C47.9395 68.6739 47.9883 68.0652 47.9883 67.3556ZM55.1072 63.7801H66.5472V65.2401H55.1072V63.7801ZM66.0472 63.7801H67.6072C67.6072 63.7801 67.5872 64.3001 67.5672 64.5001C67.2872 70.7001 67.0072 73.0201 66.2872 73.7801C65.8872 74.2801 65.4472 74.4201 64.7472 74.4801C64.0872 74.5401 62.8272 74.5201 61.5672 74.4601C61.5472 74.0001 61.3472 73.3801 61.0672 72.9401C62.3872 73.0601 63.6272 73.0801 64.1072 73.0801C64.5072 73.0801 64.7472 73.0401 64.9472 72.8201C65.4872 72.2801 65.7872 70.0001 66.0472 64.0601V63.7801ZM57.8472 56.6201L59.4272 57.0801C57.9872 60.4601 55.6272 63.4401 53.1072 65.3601C52.8272 65.0401 52.1872 64.4601 51.8072 64.1801C54.3672 62.4601 56.5872 59.7001 57.8472 56.6201ZM64.8272 56.5801C66.1272 59.2601 68.7072 62.3001 70.8872 63.8401C70.4872 64.1601 69.9272 64.7601 69.6272 65.1801C67.4072 63.3801 64.8872 60.1401 63.3872 57.1601L64.8272 56.5801ZM59.3272 64.1801H60.9272C60.4672 68.5601 59.4272 72.7001 53.8472 74.7001C53.6672 74.3201 53.2272 73.7201 52.8872 73.4001C58.1272 71.6601 58.9272 67.9601 59.3272 64.1801Z" fill="#333333"/>
<path d="M500 40H100V92H500V40Z" fill="#FFFEFE"/>
<path d="M119.4 62.6802H127.62V64.1802H119.4V62.6802ZM111.02 72.1602H128.98V73.6602H111.02V72.1602ZM118.54 56.5002H120.12V72.9602H118.54V56.5002ZM132.94 57.2802L134.28 56.7202C135.24 58.1202 136.28 59.9802 136.68 61.1802L135.24 61.8002C134.86 60.6002 133.88 58.6802 132.94 57.2802ZM145.56 56.6602L147.14 57.2202C146.34 58.7802 145.28 60.6002 144.44 61.7802L143.12 61.2602C143.94 60.0802 144.98 58.1002 145.56 56.6602ZM132.36 62.6802H147.8V64.1602H132.36V62.6802ZM131.06 67.3802H148.96V68.9002H131.06V67.3802ZM139.14 56.2002H140.72V74.5802H139.14V56.2002ZM155.16 61.3602H164.64V62.5202H155.16V61.3602ZM155.16 64.3802H164.64V65.5402H155.16V64.3802ZM163.98 58.2002H165.52V72.5202C165.52 73.5802 165.28 74.0802 164.54 74.3402C163.78 74.6002 162.48 74.6202 160.44 74.6202C160.36 74.1802 160.1 73.4802 159.88 73.0202C161.46 73.1002 162.96 73.0802 163.4 73.0602C163.84 73.0602 163.98 72.9202 163.98 72.5202V58.2002ZM151.08 67.8602C154.38 67.7002 159.72 67.3802 164.7 67.0602L164.68 68.3202C159.88 68.7202 154.78 69.1202 151.3 69.3602L151.08 67.8602ZM167.4 62.6402L168.82 63.3602C165.02 68.9002 158.84 72.4002 151.9 74.4602C151.7 74.1002 151.2 73.4002 150.9 73.0802C157.88 71.2402 163.94 67.8202 167.4 62.6402ZM159.14 56.1602L160.94 56.4402C160.42 57.4602 159.78 58.5602 159.28 59.2802L157.94 58.9602C158.38 58.1602 158.9 56.9802 159.14 56.1602ZM154.22 58.2002H164.48V59.5202H155.7V68.4602H154.22V58.2002ZM175.46 74.1202C174.16 72.5402 172.44 70.8402 171.02 69.6802L172.32 68.5402C173.76 69.7002 175.56 71.5002 176.82 72.9602L175.46 74.1202ZM191.1 57.6802H208.9V59.2002H191.1V57.6802ZM198.8 58.8802H200.38V74.5802H198.8V58.8802ZM199.68 63.6202L200.66 62.4602C203.06 63.6202 206.22 65.4402 207.82 66.6402L206.76 68.0002C205.22 66.7602 202.1 64.8602 199.68 63.6202ZM212.94 57.2802L214.28 56.7202C215.24 58.1202 216.28 59.9802 216.68 61.1802L215.24 61.8002C214.86 60.6002 213.88 58.6802 212.94 57.2802ZM225.56 56.6602L227.14 57.2202C226.34 58.7802 225.28 60.6002 224.44 61.7802L223.12 61.2602C223.94 60.0802 224.98 58.1002 225.56 56.6602ZM212.36 62.6802H227.8V64.1602H212.36V62.6802ZM211.06 67.3802H228.96V68.9002H211.06V67.3802ZM219.14 56.2002H220.72V74.5802H219.14V56.2002ZM235.16 61.3602H244.64V62.5202H235.16V61.3602ZM235.16 64.3802H244.64V65.5402H235.16V64.3802ZM243.98 58.2002H245.52V72.5202C245.52 73.5802 245.28 74.0802 244.54 74.3402C243.78 74.6002 242.48 74.6202 240.44 74.6202C240.36 74.1802 240.1 73.4802 239.88 73.0202C241.46 73.1002 242.96 73.0802 243.4 73.0602C243.84 73.0602 243.98 72.9202 243.98 72.5202V58.2002ZM231.08 67.8602C234.38 67.7002 239.72 67.3802 244.7 67.0602L244.68 68.3202C239.88 68.7202 234.78 69.1202 231.3 69.3602L231.08 67.8602ZM247.4 62.6402L248.82 63.3602C245.02 68.9002 238.84 72.4002 231.9 74.4602C231.7 74.1002 231.2 73.4002 230.9 73.0802C237.88 71.2402 243.94 67.8202 247.4 62.6402ZM239.14 56.1602L240.94 56.4402C240.42 57.4602 239.78 58.5602 239.28 59.2802L237.94 58.9602C238.38 58.1602 238.9 56.9802 239.14 56.1602ZM234.22 58.2002H244.48V59.5202H235.7V68.4602H234.22V58.2002ZM261.26 59.3602C261 61.4402 260.6 63.7802 259.98 65.9202C258.76 70.0202 257.16 72.1402 255.32 72.1402C253.52 72.1402 251.74 70.1002 251.74 66.7802C251.74 62.4402 255.6 58.6602 260.5 58.6602C265.18 58.6602 268.16 61.9602 268.16 66.0202C268.16 70.2002 265.4 73.0002 260.64 73.6202L259.72 72.1402C260.36 72.0802 260.96 72.0002 261.44 71.9002C264 71.3202 266.52 69.4002 266.52 65.9402C266.52 62.7402 264.3 60.1002 260.46 60.1002C256.06 60.1002 253.32 63.7202 253.32 66.6602C253.32 69.1802 254.46 70.3002 255.36 70.3002C256.3 70.3002 257.38 68.9402 258.4 65.5602C258.98 63.6602 259.4 61.4002 259.6 59.3202L261.26 59.3602ZM274.46 58.3402C274.96 58.3802 275.54 58.4002 275.96 58.4002C277.02 58.4002 279.64 58.2802 280.48 58.2002C280.86 58.1802 281.2 58.1002 281.48 58.0002L282.48 58.8002C282.28 59.0202 282.12 59.2202 281.96 59.4802C281.32 60.5202 280.22 63.0802 279.3 65.1402C278.5 66.9002 277.4 69.6202 276.54 70.8602C275.84 71.8802 275.06 72.2602 274.02 72.2602C272.54 72.2602 271.44 71.1802 271.44 69.5202C271.44 66.5002 274.28 64.2002 278.34 64.2002C282.84 64.2002 286.8 66.6002 288.96 68.1402L288.22 69.8402C285.88 67.8202 282.22 65.6002 278.1 65.6002C274.78 65.6002 272.88 67.4602 272.88 69.3002C272.88 70.2002 273.46 70.6602 274.08 70.6602C274.54 70.6602 274.88 70.5002 275.3 69.9602C276.12 68.8802 277.02 66.5602 277.78 64.8802C278.58 63.1402 279.48 61.0802 280.16 59.6602C279.36 59.6802 276.92 59.8002 276.02 59.8402C275.58 59.8602 275 59.9202 274.52 59.9802L274.46 58.3402ZM286.96 62.7202C286.68 68.4202 285.52 71.8802 280.86 74.2202L279.54 73.1202C284.24 71.1402 285.1 67.3602 285.32 64.4002C285.36 63.8002 285.38 63.1202 285.32 62.5402L286.96 62.7202Z" fill="#333333"/>
<path d="M500 40H898V92H500V40Z" fill="#FFFEFE"/>
<path d="M514.16 56.2797H515.56V74.5797H514.16V56.2797ZM510.94 62.9197H518.84V64.3397H510.94V62.9197ZM513.94 63.6597L514.84 64.0597C514.14 66.7797 512.72 70.2397 511.38 72.0597C511.22 71.6197 510.86 70.9797 510.62 70.5797C511.9 69.0397 513.3 65.9997 513.94 63.6597ZM515.52 64.5997C516.08 65.1997 518.12 67.9197 518.58 68.5797L517.58 69.7797C517.08 68.6997 515.44 66.0797 514.78 65.2197L515.52 64.5997ZM511.08 57.7597L512.18 57.4797C512.74 58.8797 513.2 60.6997 513.34 61.8997L512.16 62.2197C512.06 61.0197 511.6 59.1597 511.08 57.7597ZM517.54 57.3997L518.86 57.7397C518.34 59.2597 517.72 61.1397 517.18 62.2597L516.22 61.9597C516.66 60.7597 517.26 58.7597 517.54 57.3997ZM525.3 56.2197H526.72V74.5997H525.3V56.2197ZM518.8 68.9397L529.08 67.0997L529.32 68.4797L519.04 70.3397L518.8 68.9397ZM520.3 58.6597L521.08 57.6397C522.24 58.3197 523.62 59.3397 524.28 60.0797L523.48 61.2397C522.84 60.4597 521.46 59.3797 520.3 58.6597ZM519.28 63.6997L519.98 62.6397C521.18 63.2597 522.66 64.1997 523.38 64.9197L522.62 66.0997C521.92 65.3797 520.48 64.3597 519.28 63.6997ZM539.92 57.6597C538.26 60.0397 535.04 62.7997 531.66 64.5997C531.48 64.2397 531.06 63.7197 530.74 63.3997C534.2 61.6597 537.52 58.6997 539.06 56.1797H540.6C542.72 59.0797 546.18 61.7597 549.32 63.1597C548.96 63.5197 548.6 64.0397 548.34 64.4797C545.24 62.8797 541.76 60.1397 539.92 57.6597ZM534.96 62.2997H545V63.6597H534.96V62.2997ZM532.38 66.3197H547.6V67.6597H532.38V66.3197ZM531.46 72.6397H548.56V73.9597H531.46V72.6397ZM539.12 62.8197H540.7V73.3397H539.12V62.8197ZM534.04 68.6797L535.26 68.1797C536.08 69.2797 536.9 70.7997 537.18 71.7997L535.88 72.3597C535.62 71.3597 534.84 69.7997 534.04 68.6797ZM544.5 68.1397L545.92 68.7197C545.16 69.9797 544.22 71.4197 543.48 72.3597L542.34 71.8597C543.06 70.8797 544 69.2797 544.5 68.1397Z" fill="#333333"/>
<mask id="mask3_496_41858" style="mask-type:luminance" maskUnits="userSpaceOnUse" x="500" y="40" width="398" height="52">
<path d="M500 40H898V92H500V40Z" fill="#333333"/>
</mask>
<g mask="url(#mask3_496_41858)">
<path d="M500.5 92V40H499.5V92H500.5Z" fill="#333333"/>
</g>
</g>
<path d="M898 92V93H898.5V92H898ZM0 92H-0.5V93H0V92ZM897.5 40V92H898.5V40H897.5ZM898 91H0V93H898V91ZM0.5 92V40H-0.5V92H0.5Z" fill="#333333"/>
<mask id="mask4_496_41858" style="mask-type:luminance" maskUnits="userSpaceOnUse" x="0" y="92" width="898" height="52">
<path d="M0 92H898V144H0V92Z" fill="white"/>
</mask>
<g mask="url(#mask4_496_41858)">
<path d="M100 92H0V144H100V92Z" fill="#F5F6F8"/>
<path d="M36.8164 110.693H37.1094V112.617H36.9434C36.1035 112.617 35.3776 112.747 34.7656 113.008C34.1602 113.268 33.6621 113.626 33.2715 114.082C32.8809 114.538 32.5879 115.072 32.3926 115.684C32.2038 116.289 32.1094 116.934 32.1094 117.617V119.854C32.1094 120.42 32.1712 120.921 32.2949 121.357C32.4186 121.787 32.5911 122.148 32.8125 122.441C33.0404 122.728 33.3008 122.946 33.5938 123.096C33.8867 123.245 34.2025 123.32 34.541 123.32C34.8926 123.32 35.2116 123.249 35.498 123.105C35.7845 122.956 36.0286 122.751 36.2305 122.49C36.4323 122.23 36.5853 121.921 36.6895 121.562C36.7936 121.204 36.8457 120.814 36.8457 120.391C36.8457 119.987 36.7936 119.609 36.6895 119.258C36.5918 118.9 36.4453 118.587 36.25 118.32C36.0547 118.047 35.8105 117.835 35.5176 117.686C35.2311 117.529 34.8991 117.451 34.5215 117.451C34.0527 117.451 33.6263 117.562 33.2422 117.783C32.8646 118.005 32.5586 118.294 32.3242 118.652C32.0964 119.004 31.9727 119.378 31.9531 119.775L31.0547 119.482C31.1068 118.877 31.2402 118.333 31.4551 117.852C31.6764 117.37 31.9661 116.96 32.3242 116.621C32.6823 116.283 33.0957 116.025 33.5645 115.85C34.0397 115.667 34.5605 115.576 35.127 115.576C35.8171 115.576 36.416 115.706 36.9238 115.967C37.4316 116.227 37.8516 116.582 38.1836 117.031C38.5221 117.474 38.7728 117.982 38.9355 118.555C39.1048 119.121 39.1895 119.714 39.1895 120.332C39.1895 121.016 39.0853 121.654 38.877 122.246C38.6686 122.832 38.3626 123.346 37.959 123.789C37.5618 124.232 37.0768 124.577 36.5039 124.824C35.9375 125.072 35.293 125.195 34.5703 125.195C33.8086 125.195 33.1283 125.049 32.5293 124.756C31.9368 124.463 31.4323 124.059 31.0156 123.545C30.6055 123.031 30.293 122.438 30.0781 121.768C29.8633 121.097 29.7559 120.387 29.7559 119.639V118.662C29.7559 117.581 29.8926 116.562 30.166 115.605C30.4395 114.642 30.8594 113.792 31.4258 113.057C31.9987 112.321 32.7311 111.745 33.623 111.328C34.515 110.905 35.5794 110.693 36.8164 110.693ZM50.3418 116.699V119.023C50.3418 120.137 50.2311 121.087 50.0098 121.875C49.7949 122.656 49.4824 123.291 49.0723 123.779C48.6621 124.268 48.1706 124.626 47.5977 124.854C47.0312 125.081 46.3965 125.195 45.6934 125.195C45.1335 125.195 44.6126 125.124 44.1309 124.98C43.6556 124.837 43.2259 124.613 42.8418 124.307C42.4577 124.001 42.1289 123.607 41.8555 123.125C41.5885 122.637 41.3802 122.054 41.2305 121.377C41.0872 120.7 41.0156 119.915 41.0156 119.023V116.699C41.0156 115.579 41.1263 114.635 41.3477 113.867C41.569 113.092 41.8848 112.464 42.2949 111.982C42.7051 111.494 43.1934 111.139 43.7598 110.918C44.3327 110.697 44.9707 110.586 45.6738 110.586C46.2402 110.586 46.7611 110.658 47.2363 110.801C47.7181 110.938 48.1478 111.156 48.5254 111.455C48.9095 111.755 49.235 112.145 49.502 112.627C49.7754 113.102 49.9837 113.678 50.127 114.355C50.2702 115.026 50.3418 115.807 50.3418 116.699ZM47.9883 119.355V116.348C47.9883 115.781 47.9557 115.283 47.8906 114.854C47.8255 114.417 47.7279 114.049 47.5977 113.75C47.474 113.444 47.3177 113.197 47.1289 113.008C46.9401 112.812 46.7253 112.673 46.4844 112.588C46.2435 112.497 45.9733 112.451 45.6738 112.451C45.3092 112.451 44.9837 112.523 44.6973 112.666C44.4108 112.803 44.1699 113.024 43.9746 113.33C43.7793 113.636 43.6296 114.04 43.5254 114.541C43.4277 115.036 43.3789 115.638 43.3789 116.348V119.355C43.3789 119.928 43.4115 120.433 43.4766 120.869C43.5417 121.305 43.6393 121.68 43.7695 121.992C43.8997 122.298 44.056 122.552 44.2383 122.754C44.4271 122.949 44.6419 123.092 44.8828 123.184C45.1302 123.275 45.4004 123.32 45.6934 123.32C46.0645 123.32 46.3932 123.249 46.6797 123.105C46.9661 122.962 47.207 122.734 47.4023 122.422C47.5977 122.103 47.7441 121.689 47.8418 121.182C47.9395 120.674 47.9883 120.065 47.9883 119.355ZM55.1072 115.78H66.5472V117.24H55.1072V115.78ZM66.0472 115.78H67.6072C67.6072 115.78 67.5872 116.3 67.5672 116.5C67.2872 122.7 67.0072 125.02 66.2872 125.78C65.8872 126.28 65.4472 126.42 64.7472 126.48C64.0872 126.54 62.8272 126.52 61.5672 126.46C61.5472 126 61.3472 125.38 61.0672 124.94C62.3872 125.06 63.6272 125.08 64.1072 125.08C64.5072 125.08 64.7472 125.04 64.9472 124.82C65.4872 124.28 65.7872 122 66.0472 116.06V115.78ZM57.8472 108.62L59.4272 109.08C57.9872 112.46 55.6272 115.44 53.1072 117.36C52.8272 117.04 52.1872 116.46 51.8072 116.18C54.3672 114.46 56.5872 111.7 57.8472 108.62ZM64.8272 108.58C66.1272 111.26 68.7072 114.3 70.8872 115.84C70.4872 116.16 69.9272 116.76 69.6272 117.18C67.4072 115.38 64.8872 112.14 63.3872 109.16L64.8272 108.58ZM59.3272 116.18H60.9272C60.4672 120.56 59.4272 124.7 53.8472 126.7C53.6672 126.32 53.2272 125.72 52.8872 125.4C58.1272 123.66 58.9272 119.96 59.3272 116.18Z" fill="#333333"/>
<path d="M500 92H100V144H500V92Z" fill="#FFFEFE"/>
<path d="M119.02 116.319L120.14 115.519C122.18 117.279 124.78 119.779 126.06 121.339L124.82 122.299C123.62 120.719 121.06 118.159 119.02 116.319ZM119.24 108.199H120.78V112.119C120.78 115.319 120.2 119.539 115.04 122.559C114.84 122.239 114.32 121.699 113.98 121.439C118.98 118.739 119.24 114.879 119.24 112.119V108.199ZM111.96 111.619H127.26V113.099H113.46V126.639H111.96V111.619ZM126.58 111.619H128.06V124.619C128.06 125.599 127.82 126.079 127.14 126.339C126.44 126.579 125.2 126.599 123.4 126.599C123.34 126.179 123.1 125.479 122.9 125.059C124.32 125.119 125.68 125.119 126.08 125.099C126.46 125.079 126.58 124.959 126.58 124.619V111.619ZM136.62 112.379L138.06 112.839C136.74 114.599 134.7 116.259 132.88 117.319C132.66 117.019 132.12 116.419 131.8 116.139C133.6 115.239 135.48 113.839 136.62 112.379ZM141.72 113.219L142.74 112.359C144.58 113.419 146.88 115.079 148.02 116.219L146.9 117.239C145.82 116.079 143.58 114.379 141.72 113.219ZM140.02 115.979C138.38 118.139 135.1 120.699 131.76 122.319C131.58 121.959 131.2 121.399 130.9 121.079C134.28 119.539 137.6 116.879 139.18 114.599H140.68C142.82 117.159 146.24 119.539 149.32 120.799C148.98 121.159 148.62 121.719 148.38 122.139C145.4 120.739 141.88 118.239 140.02 115.979ZM134.48 119.899H145.56V126.539H144.04V121.239H135.94V126.619H134.48V119.899ZM135.18 124.599H144.84V125.939H135.18V124.599ZM139.18 108.199H140.72V110.819H139.18V108.199ZM131.64 110.059H148.34V113.699H146.82V111.419H133.12V113.699H131.64V110.059Z" fill="#333333"/>
<path d="M500 92H898V144H500V92Z" fill="#0CA7AB"/>
<path d="M517.778 110.72C517.658 110.16 517.518 109.68 517.358 109.22L520.198 108.76C520.238 109.14 520.318 109.82 520.398 110.3C520.598 111.62 522.578 121.74 522.998 123.78C523.138 124.36 523.318 125.08 523.498 125.74L520.618 126.24C520.518 125.5 520.478 124.82 520.338 124.22C520.038 122.42 518.098 112.34 517.778 110.72ZM512.318 113.28C512.938 113.24 513.538 113.2 514.178 113.12C515.878 112.92 522.878 111.84 524.678 111.48C525.298 111.38 526.058 111.2 526.538 111.06L527.038 113.7C526.598 113.72 525.778 113.84 525.178 113.92C523.058 114.26 516.178 115.36 514.678 115.62C514.058 115.74 513.538 115.86 512.858 116.04L512.318 113.28ZM512.338 119.14C512.858 119.12 513.778 119.02 514.398 118.92C516.538 118.62 523.838 117.44 526.138 117C526.918 116.86 527.658 116.68 528.198 116.54L528.718 119.18C528.178 119.22 527.358 119.36 526.618 119.48C524.078 119.86 516.878 121.04 514.898 121.42C514.038 121.58 513.338 121.7 512.898 121.82L512.338 119.14ZM538.498 112.3C538.558 112.78 538.698 113.3 538.818 113.82C539.498 116.22 541.378 123.1 541.878 124.76C541.978 125.12 542.258 126 542.398 126.4L539.698 127.08C539.618 126.54 539.498 125.88 539.338 125.32C538.838 123.58 537.018 116.44 536.378 114.36C536.238 113.86 536.018 113.36 535.798 112.94L538.498 112.3ZM548.098 115.4C547.238 117.14 545.238 120.16 543.838 121.64L541.618 120.54C542.658 119.62 544.038 117.94 544.578 116.96C543.538 117.14 535.398 118.84 533.758 119.2L533.138 116.82C533.758 116.76 534.318 116.7 534.978 116.58C536.058 116.42 544.058 114.9 545.478 114.58C545.818 114.5 546.218 114.38 546.478 114.26L548.098 115.4ZM555.318 109.8C556.698 110.74 559.298 112.82 560.478 114.04L558.438 116.12C557.398 115 554.878 112.82 553.418 111.82L555.318 109.8ZM552.798 123.12C555.938 122.68 558.518 121.66 560.458 120.52C563.878 118.48 566.478 115.44 567.758 112.74L569.298 115.54C567.798 118.26 565.138 121.02 561.918 122.96C559.878 124.18 557.298 125.28 554.498 125.76L552.798 123.12ZM584.938 112.76C584.938 113.46 585.518 114.04 586.218 114.04C586.918 114.04 587.478 113.46 587.478 112.76C587.478 112.06 586.918 111.5 586.218 111.5C585.518 111.5 584.938 112.06 584.938 112.76ZM583.618 112.76C583.618 111.32 584.778 110.16 586.218 110.16C587.658 110.16 588.818 111.32 588.818 112.76C588.818 114.2 587.658 115.36 586.218 115.36C584.778 115.36 583.618 114.2 583.618 112.76ZM571.198 119.32C571.778 118.82 572.218 118.4 572.838 117.78C573.738 116.88 575.298 114.92 576.678 113.28C577.878 111.86 579.058 111.64 580.598 113.1C581.958 114.38 583.478 115.96 584.678 117.26C586.018 118.7 588.078 120.9 589.618 122.54L587.398 124.92C586.058 123.26 584.378 121.18 583.198 119.8C582.018 118.42 580.258 116.48 579.538 115.74C578.878 115.1 578.458 115.14 577.898 115.86C577.098 116.88 575.698 118.84 574.878 119.94C574.418 120.56 573.958 121.28 573.598 121.8L571.198 119.32ZM592.318 115.74C593.058 115.8 594.498 115.88 595.538 115.88C597.898 115.88 604.498 115.88 606.278 115.88C607.218 115.88 608.098 115.78 608.638 115.74V118.9C608.158 118.88 607.138 118.78 606.298 118.78C604.478 118.78 597.898 118.78 595.538 118.78C594.418 118.78 593.078 118.84 592.318 118.9V115.74ZM614.322 109.8C615.702 110.74 618.302 112.82 619.482 114.04L617.442 116.12C616.402 115 613.882 112.82 612.422 111.82L614.322 109.8ZM611.802 123.12C614.942 122.68 617.522 121.66 619.462 120.52C622.882 118.48 625.482 115.44 626.762 112.74L628.302 115.54C626.802 118.26 624.142 121.02 620.922 122.96C618.882 124.18 616.302 125.28 613.502 125.76L611.802 123.12ZM638.462 119.86L637.942 113.02L637.842 110.04H641.142L641.042 113.02L640.522 119.86H638.462ZM639.502 125.2C638.462 125.2 637.722 124.46 637.722 123.42C637.722 122.38 638.482 121.66 639.502 121.66C640.502 121.66 641.262 122.38 641.262 123.42C641.262 124.46 640.502 125.2 639.502 125.2ZM658.462 119.86L657.942 113.02L657.842 110.04H661.142L661.042 113.02L660.522 119.86H658.462ZM659.502 125.2C658.462 125.2 657.722 124.46 657.722 123.42C657.722 122.38 658.482 121.66 659.502 121.66C660.502 121.66 661.262 122.38 661.262 123.42C661.262 124.46 660.502 125.2 659.502 125.2Z" fill="white"/>
<mask id="mask5_496_41858" style="mask-type:luminance" maskUnits="userSpaceOnUse" x="500" y="92" width="398" height="52">
<path d="M500 92H898V144H500V92Z" fill="#575757"/>
</mask>
<g mask="url(#mask5_496_41858)">
<path d="M500.5 144V92H499.5V144H500.5Z" fill="#575757"/>
</g>
</g>
<path d="M898 144V145H898.5V144H898ZM0 144H-0.5V145H0V144ZM897.5 92V144H898.5V92H897.5ZM898 143H0V145H898V143ZM0.5 144V92H-0.5V144H0.5Z" fill="#333333"/>
<mask id="mask6_496_41858" style="mask-type:luminance" maskUnits="userSpaceOnUse" x="0" y="144" width="898" height="52">
<path d="M0 144H898V196H0V144Z" fill="white"/>
</mask>
<g mask="url(#mask6_496_41858)">
<path d="M100 144H0V196H100V144Z" fill="#F5F6F8"/>
<path d="M39.0039 173.123C39.0039 174.008 38.7988 174.754 38.3887 175.359C37.9785 175.965 37.4186 176.424 36.709 176.736C36.0059 177.042 35.2116 177.195 34.3262 177.195C33.4408 177.195 32.6432 177.042 31.9336 176.736C31.224 176.424 30.6641 175.965 30.2539 175.359C29.8438 174.754 29.6387 174.008 29.6387 173.123C29.6387 172.537 29.7526 172.007 29.9805 171.531C30.2083 171.049 30.5306 170.636 30.9473 170.291C31.3704 169.939 31.8652 169.669 32.4316 169.48C33.0046 169.292 33.6296 169.197 34.3066 169.197C35.2051 169.197 36.0091 169.363 36.7188 169.695C37.4284 170.027 37.985 170.486 38.3887 171.072C38.7988 171.658 39.0039 172.342 39.0039 173.123ZM36.6406 173.006C36.6406 172.531 36.543 172.114 36.3477 171.756C36.1523 171.398 35.8789 171.121 35.5273 170.926C35.1758 170.73 34.7689 170.633 34.3066 170.633C33.8379 170.633 33.431 170.73 33.0859 170.926C32.7409 171.121 32.4707 171.398 32.2754 171.756C32.0866 172.114 31.9922 172.531 31.9922 173.006C31.9922 173.488 32.0866 173.904 32.2754 174.256C32.4642 174.601 32.7344 174.865 33.0859 175.047C33.4375 175.229 33.8509 175.32 34.3262 175.32C34.8014 175.32 35.2116 175.229 35.5566 175.047C35.9017 174.865 36.1686 174.601 36.3574 174.256C36.5462 173.904 36.6406 173.488 36.6406 173.006ZM38.6816 166.521C38.6816 167.231 38.4928 167.863 38.1152 168.416C37.7441 168.969 37.2298 169.406 36.5723 169.725C35.9147 170.037 35.166 170.193 34.3262 170.193C33.4798 170.193 32.7246 170.037 32.0605 169.725C31.403 169.406 30.8854 168.969 30.5078 168.416C30.1367 167.863 29.9512 167.231 29.9512 166.521C29.9512 165.675 30.1367 164.962 30.5078 164.383C30.8854 163.797 31.403 163.351 32.0605 163.045C32.7181 162.739 33.4701 162.586 34.3164 162.586C35.1628 162.586 35.9147 162.739 36.5723 163.045C37.2298 163.351 37.7441 163.797 38.1152 164.383C38.4928 164.962 38.6816 165.675 38.6816 166.521ZM36.3281 166.6C36.3281 166.176 36.2435 165.805 36.0742 165.486C35.9115 165.161 35.6803 164.907 35.3809 164.725C35.0814 164.542 34.7266 164.451 34.3164 164.451C33.9062 164.451 33.5514 164.539 33.252 164.715C32.9525 164.891 32.7214 165.138 32.5586 165.457C32.3958 165.776 32.3145 166.157 32.3145 166.6C32.3145 167.036 32.3958 167.417 32.5586 167.742C32.7214 168.061 32.9525 168.312 33.252 168.494C33.5579 168.676 33.916 168.768 34.3262 168.768C34.7363 168.768 35.0911 168.676 35.3906 168.494C35.6901 168.312 35.9212 168.061 36.084 167.742C36.2467 167.417 36.3281 167.036 36.3281 166.6ZM50.3418 168.699V171.023C50.3418 172.137 50.2311 173.087 50.0098 173.875C49.7949 174.656 49.4824 175.291 49.0723 175.779C48.6621 176.268 48.1706 176.626 47.5977 176.854C47.0312 177.081 46.3965 177.195 45.6934 177.195C45.1335 177.195 44.6126 177.124 44.1309 176.98C43.6556 176.837 43.2259 176.613 42.8418 176.307C42.4577 176.001 42.1289 175.607 41.8555 175.125C41.5885 174.637 41.3802 174.054 41.2305 173.377C41.0872 172.7 41.0156 171.915 41.0156 171.023V168.699C41.0156 167.579 41.1263 166.635 41.3477 165.867C41.569 165.092 41.8848 164.464 42.2949 163.982C42.7051 163.494 43.1934 163.139 43.7598 162.918C44.3327 162.697 44.9707 162.586 45.6738 162.586C46.2402 162.586 46.7611 162.658 47.2363 162.801C47.7181 162.938 48.1478 163.156 48.5254 163.455C48.9095 163.755 49.235 164.145 49.502 164.627C49.7754 165.102 49.9837 165.678 50.127 166.355C50.2702 167.026 50.3418 167.807 50.3418 168.699ZM47.9883 171.355V168.348C47.9883 167.781 47.9557 167.283 47.8906 166.854C47.8255 166.417 47.7279 166.049 47.5977 165.75C47.474 165.444 47.3177 165.197 47.1289 165.008C46.9401 164.812 46.7253 164.673 46.4844 164.588C46.2435 164.497 45.9733 164.451 45.6738 164.451C45.3092 164.451 44.9837 164.523 44.6973 164.666C44.4108 164.803 44.1699 165.024 43.9746 165.33C43.7793 165.636 43.6296 166.04 43.5254 166.541C43.4277 167.036 43.3789 167.638 43.3789 168.348V171.355C43.3789 171.928 43.4115 172.433 43.4766 172.869C43.5417 173.305 43.6393 173.68 43.7695 173.992C43.8997 174.298 44.056 174.552 44.2383 174.754C44.4271 174.949 44.6419 175.092 44.8828 175.184C45.1302 175.275 45.4004 175.32 45.6934 175.32C46.0645 175.32 46.3932 175.249 46.6797 175.105C46.9661 174.962 47.207 174.734 47.4023 174.422C47.5977 174.103 47.7441 173.689 47.8418 173.182C47.9395 172.674 47.9883 172.065 47.9883 171.355ZM55.1072 167.78H66.5472V169.24H55.1072V167.78ZM66.0472 167.78H67.6072C67.6072 167.78 67.5872 168.3 67.5672 168.5C67.2872 174.7 67.0072 177.02 66.2872 177.78C65.8872 178.28 65.4472 178.42 64.7472 178.48C64.0872 178.54 62.8272 178.52 61.5672 178.46C61.5472 178 61.3472 177.38 61.0672 176.94C62.3872 177.06 63.6272 177.08 64.1072 177.08C64.5072 177.08 64.7472 177.04 64.9472 176.82C65.4872 176.28 65.7872 174 66.0472 168.06V167.78ZM57.8472 160.62L59.4272 161.08C57.9872 164.46 55.6272 167.44 53.1072 169.36C52.8272 169.04 52.1872 168.46 51.8072 168.18C54.3672 166.46 56.5872 163.7 57.8472 160.62ZM64.8272 160.58C66.1272 163.26 68.7072 166.3 70.8872 167.84C70.4872 168.16 69.9272 168.76 69.6272 169.18C67.4072 167.38 64.8872 164.14 63.3872 161.16L64.8272 160.58ZM59.3272 168.18H60.9272C60.4672 172.56 59.4272 176.7 53.8472 178.7C53.6672 178.32 53.2272 177.72 52.8872 177.4C58.1272 175.66 58.9272 171.96 59.3272 168.18Z" fill="#333333"/>
<path d="M500 144H100V196H500V144Z" fill="#FFFEFE"/>
<path d="M119.02 168.319L120.14 167.519C122.18 169.279 124.78 171.779 126.06 173.339L124.82 174.299C123.62 172.719 121.06 170.159 119.02 168.319ZM119.24 160.199H120.78V164.119C120.78 167.319 120.2 171.539 115.04 174.559C114.84 174.239 114.32 173.699 113.98 173.439C118.98 170.739 119.24 166.879 119.24 164.119V160.199ZM111.96 163.619H127.26V165.099H113.46V178.639H111.96V163.619ZM126.58 163.619H128.06V176.619C128.06 177.599 127.82 178.079 127.14 178.339C126.44 178.579 125.2 178.599 123.4 178.599C123.34 178.179 123.1 177.479 122.9 177.059C124.32 177.119 125.68 177.119 126.08 177.099C126.46 177.079 126.58 176.959 126.58 176.619V163.619ZM136.62 164.379L138.06 164.839C136.74 166.599 134.7 168.259 132.88 169.319C132.66 169.019 132.12 168.419 131.8 168.139C133.6 167.239 135.48 165.839 136.62 164.379ZM141.72 165.219L142.74 164.359C144.58 165.419 146.88 167.079 148.02 168.219L146.9 169.239C145.82 168.079 143.58 166.379 141.72 165.219ZM140.02 167.979C138.38 170.139 135.1 172.699 131.76 174.319C131.58 173.959 131.2 173.399 130.9 173.079C134.28 171.539 137.6 168.879 139.18 166.599H140.68C142.82 169.159 146.24 171.539 149.32 172.799C148.98 173.159 148.62 173.719 148.38 174.139C145.4 172.739 141.88 170.239 140.02 167.979ZM134.48 171.899H145.56V178.539H144.04V173.239H135.94V178.619H134.48V171.899ZM135.18 176.599H144.84V177.939H135.18V176.599ZM139.18 160.199H140.72V162.819H139.18V160.199ZM131.64 162.059H148.34V165.699H146.82V163.419H133.12V165.699H131.64V162.059Z" fill="#333333"/>
<path d="M500 144H898V196H500V144Z" fill="#FFFEFE"/>
<path d="M514.16 160.28H515.56V178.58H514.16V160.28ZM510.94 166.92H518.84V168.34H510.94V166.92ZM513.94 167.66L514.84 168.06C514.14 170.78 512.72 174.24 511.38 176.06C511.22 175.62 510.86 174.98 510.62 174.58C511.9 173.04 513.3 170 513.94 167.66ZM515.52 168.6C516.08 169.2 518.12 171.92 518.58 172.58L517.58 173.78C517.08 172.7 515.44 170.08 514.78 169.22L515.52 168.6ZM511.08 161.76L512.18 161.48C512.74 162.88 513.2 164.7 513.34 165.9L512.16 166.22C512.06 165.02 511.6 163.16 511.08 161.76ZM517.54 161.4L518.86 161.74C518.34 163.26 517.72 165.14 517.18 166.26L516.22 165.96C516.66 164.76 517.26 162.76 517.54 161.4ZM525.3 160.22H526.72V178.6H525.3V160.22ZM518.8 172.94L529.08 171.1L529.32 172.48L519.04 174.34L518.8 172.94ZM520.3 162.66L521.08 161.64C522.24 162.32 523.62 163.34 524.28 164.08L523.48 165.24C522.84 164.46 521.46 163.38 520.3 162.66ZM519.28 167.7L519.98 166.64C521.18 167.26 522.66 168.2 523.38 168.92L522.62 170.1C521.92 169.38 520.48 168.36 519.28 167.7ZM539.92 161.66C538.26 164.04 535.04 166.8 531.66 168.6C531.48 168.24 531.06 167.72 530.74 167.4C534.2 165.66 537.52 162.7 539.06 160.18H540.6C542.72 163.08 546.18 165.76 549.32 167.16C548.96 167.52 548.6 168.04 548.34 168.48C545.24 166.88 541.76 164.14 539.92 161.66ZM534.96 166.3H545V167.66H534.96V166.3ZM532.38 170.32H547.6V171.66H532.38V170.32ZM531.46 176.64H548.56V177.96H531.46V176.64ZM539.12 166.82H540.7V177.34H539.12V166.82ZM534.04 172.68L535.26 172.18C536.08 173.28 536.9 174.8 537.18 175.8L535.88 176.36C535.62 175.36 534.84 173.8 534.04 172.68ZM544.5 172.14L545.92 172.72C545.16 173.98 544.22 175.42 543.48 176.36L542.34 175.86C543.06 174.88 544 173.28 544.5 172.14Z" fill="#333333"/>
<mask id="mask7_496_41858" style="mask-type:luminance" maskUnits="userSpaceOnUse" x="500" y="144" width="398" height="52">
<path d="M500 144H898V196H500V144Z" fill="#333333"/>
</mask>
<g mask="url(#mask7_496_41858)">
<path d="M500.5 196V144H499.5V196H500.5Z" fill="#333333"/>
</g>
</g>
<path d="M898 196V197H898.5V196H898ZM0 196H-0.5V197H0V196ZM897.5 144V196H898.5V144H897.5ZM898 195H0V197H898V195ZM0.5 196V144H-0.5V196H0.5Z" fill="#333333"/>
<mask id="mask8_496_41858" style="mask-type:luminance" maskUnits="userSpaceOnUse" x="0" y="196" width="898" height="52">
<path d="M0 196H898V243C898 245.761 895.761 248 893 248H4.99998C2.23856 248 0 245.761 0 243V196Z" fill="white"/>
</mask>
<g mask="url(#mask8_496_41858)">
<path d="M100 196H0V248H100V196Z" fill="#F5F6F8"/>
<path d="M30.4492 214.732V229H28.0957V217.525L24.6094 218.707V216.764L30.166 214.732H30.4492ZM44.6582 220.699V223.023C44.6582 224.137 44.5475 225.087 44.3262 225.875C44.1113 226.656 43.7988 227.291 43.3887 227.779C42.9785 228.268 42.487 228.626 41.9141 228.854C41.3477 229.081 40.7129 229.195 40.0098 229.195C39.4499 229.195 38.929 229.124 38.4473 228.98C37.972 228.837 37.5423 228.613 37.1582 228.307C36.7741 228.001 36.4453 227.607 36.1719 227.125C35.9049 226.637 35.6966 226.054 35.5469 225.377C35.4036 224.7 35.332 223.915 35.332 223.023V220.699C35.332 219.579 35.4427 218.635 35.6641 217.867C35.8854 217.092 36.2012 216.464 36.6113 215.982C37.0215 215.494 37.5098 215.139 38.0762 214.918C38.6491 214.697 39.2871 214.586 39.9902 214.586C40.5566 214.586 41.0775 214.658 41.5527 214.801C42.0345 214.938 42.4642 215.156 42.8418 215.455C43.2259 215.755 43.5514 216.145 43.8184 216.627C44.0918 217.102 44.3001 217.678 44.4434 218.355C44.5866 219.026 44.6582 219.807 44.6582 220.699ZM42.3047 223.355V220.348C42.3047 219.781 42.2721 219.283 42.207 218.854C42.1419 218.417 42.0443 218.049 41.9141 217.75C41.7904 217.444 41.6341 217.197 41.4453 217.008C41.2565 216.812 41.0417 216.673 40.8008 216.588C40.5599 216.497 40.2897 216.451 39.9902 216.451C39.6257 216.451 39.3001 216.523 39.0137 216.666C38.7272 216.803 38.4863 217.024 38.291 217.33C38.0957 217.636 37.946 218.04 37.8418 218.541C37.7441 219.036 37.6953 219.638 37.6953 220.348V223.355C37.6953 223.928 37.7279 224.433 37.793 224.869C37.8581 225.305 37.9557 225.68 38.0859 225.992C38.2161 226.298 38.3724 226.552 38.5547 226.754C38.7435 226.949 38.9583 227.092 39.1992 227.184C39.4466 227.275 39.7168 227.32 40.0098 227.32C40.3809 227.32 40.7096 227.249 40.9961 227.105C41.2826 226.962 41.5234 226.734 41.7188 226.422C41.9141 226.103 42.0605 225.689 42.1582 225.182C42.2559 224.674 42.3047 224.065 42.3047 223.355ZM56.0254 220.699V223.023C56.0254 224.137 55.9147 225.087 55.6934 225.875C55.4785 226.656 55.166 227.291 54.7559 227.779C54.3457 228.268 53.8542 228.626 53.2812 228.854C52.7148 229.081 52.0801 229.195 51.377 229.195C50.8171 229.195 50.2962 229.124 49.8145 228.98C49.3392 228.837 48.9095 228.613 48.5254 228.307C48.1413 228.001 47.8125 227.607 47.5391 227.125C47.2721 226.637 47.0638 226.054 46.9141 225.377C46.7708 224.7 46.6992 223.915 46.6992 223.023V220.699C46.6992 219.579 46.8099 218.635 47.0312 217.867C47.2526 217.092 47.5684 216.464 47.9785 215.982C48.3887 215.494 48.877 215.139 49.4434 214.918C50.0163 214.697 50.6543 214.586 51.3574 214.586C51.9238 214.586 52.4447 214.658 52.9199 214.801C53.4017 214.938 53.8314 215.156 54.209 215.455C54.5931 215.755 54.9186 216.145 55.1855 216.627C55.459 217.102 55.6673 217.678 55.8105 218.355C55.9538 219.026 56.0254 219.807 56.0254 220.699ZM53.6719 223.355V220.348C53.6719 219.781 53.6393 219.283 53.5742 218.854C53.5091 218.417 53.4115 218.049 53.2812 217.75C53.1576 217.444 53.0013 217.197 52.8125 217.008C52.6237 216.812 52.4089 216.673 52.168 216.588C51.9271 216.497 51.6569 216.451 51.3574 216.451C50.9928 216.451 50.6673 216.523 50.3809 216.666C50.0944 216.803 49.8535 217.024 49.6582 217.33C49.4629 217.636 49.3132 218.04 49.209 218.541C49.1113 219.036 49.0625 219.638 49.0625 220.348V223.355C49.0625 223.928 49.0951 224.433 49.1602 224.869C49.2253 225.305 49.3229 225.68 49.4531 225.992C49.5833 226.298 49.7396 226.552 49.9219 226.754C50.1107 226.949 50.3255 227.092 50.5664 227.184C50.8138 227.275 51.084 227.32 51.377 227.32C51.748 227.32 52.0768 227.249 52.3633 227.105C52.6497 226.962 52.8906 226.734 53.0859 226.422C53.2812 226.103 53.4277 225.689 53.5254 225.182C53.623 224.674 53.6719 224.065 53.6719 223.355ZM60.7908 219.78H72.2308V221.24H60.7908V219.78ZM71.7308 219.78H73.2908C73.2908 219.78 73.2708 220.3 73.2508 220.5C72.9708 226.7 72.6908 229.02 71.9708 229.78C71.5708 230.28 71.1308 230.42 70.4308 230.48C69.7708 230.54 68.5108 230.52 67.2508 230.46C67.2308 230 67.0308 229.38 66.7508 228.94C68.0708 229.06 69.3108 229.08 69.7908 229.08C70.1908 229.08 70.4308 229.04 70.6308 228.82C71.1708 228.28 71.4708 226 71.7308 220.06V219.78ZM63.5308 212.62L65.1108 213.08C63.6708 216.46 61.3108 219.44 58.7908 221.36C58.5108 221.04 57.8708 220.46 57.4908 220.18C60.0508 218.46 62.2708 215.7 63.5308 212.62ZM70.5108 212.58C71.8108 215.26 74.3908 218.3 76.5708 219.84C76.1708 220.16 75.6108 220.76 75.3108 221.18C73.0908 219.38 70.5708 216.14 69.0708 213.16L70.5108 212.58ZM65.0108 220.18H66.6108C66.1508 224.56 65.1108 228.7 59.5308 230.7C59.3508 230.32 58.9108 229.72 58.5708 229.4C63.8108 227.66 64.6108 223.96 65.0108 220.18Z" fill="#333333"/>
<path d="M500 196H100V248H500V196Z" fill="#FFFEFE"/>
<path d="M119.02 220.319L120.14 219.519C122.18 221.279 124.78 223.779 126.06 225.339L124.82 226.299C123.62 224.719 121.06 222.159 119.02 220.319ZM119.24 212.199H120.78V216.119C120.78 219.319 120.2 223.539 115.04 226.559C114.84 226.239 114.32 225.699 113.98 225.439C118.98 222.739 119.24 218.879 119.24 216.119V212.199ZM111.96 215.619H127.26V217.099H113.46V230.639H111.96V215.619ZM126.58 215.619H128.06V228.619C128.06 229.599 127.82 230.079 127.14 230.339C126.44 230.579 125.2 230.599 123.4 230.599C123.34 230.179 123.1 229.479 122.9 229.059C124.32 229.119 125.68 229.119 126.08 229.099C126.46 229.079 126.58 228.959 126.58 228.619V215.619ZM136.62 216.379L138.06 216.839C136.74 218.599 134.7 220.259 132.88 221.319C132.66 221.019 132.12 220.419 131.8 220.139C133.6 219.239 135.48 217.839 136.62 216.379ZM141.72 217.219L142.74 216.359C144.58 217.419 146.88 219.079 148.02 220.219L146.9 221.239C145.82 220.079 143.58 218.379 141.72 217.219ZM140.02 219.979C138.38 222.139 135.1 224.699 131.76 226.319C131.58 225.959 131.2 225.399 130.9 225.079C134.28 223.539 137.6 220.879 139.18 218.599H140.68C142.82 221.159 146.24 223.539 149.32 224.799C148.98 225.159 148.62 225.719 148.38 226.139C145.4 224.739 141.88 222.239 140.02 219.979ZM134.48 223.899H145.56V230.539H144.04V225.239H135.94V230.619H134.48V223.899ZM135.18 228.599H144.84V229.939H135.18V228.599ZM139.18 212.199H140.72V214.819H139.18V212.199ZM131.64 214.059H148.34V217.699H146.82V215.419H133.12V217.699H131.64V214.059Z" fill="#333333"/>
<path d="M500 196H898V248H500V196Z" fill="#FFFEFE"/>
<path d="M514.16 212.28H515.56V230.58H514.16V212.28ZM510.94 218.92H518.84V220.34H510.94V218.92ZM513.94 219.66L514.84 220.06C514.14 222.78 512.72 226.24 511.38 228.06C511.22 227.62 510.86 226.98 510.62 226.58C511.9 225.04 513.3 222 513.94 219.66ZM515.52 220.6C516.08 221.2 518.12 223.92 518.58 224.58L517.58 225.78C517.08 224.7 515.44 222.08 514.78 221.22L515.52 220.6ZM511.08 213.76L512.18 213.48C512.74 214.88 513.2 216.7 513.34 217.9L512.16 218.22C512.06 217.02 511.6 215.16 511.08 213.76ZM517.54 213.4L518.86 213.74C518.34 215.26 517.72 217.14 517.18 218.26L516.22 217.96C516.66 216.76 517.26 214.76 517.54 213.4ZM525.3 212.22H526.72V230.6H525.3V212.22ZM518.8 224.94L529.08 223.1L529.32 224.48L519.04 226.34L518.8 224.94ZM520.3 214.66L521.08 213.64C522.24 214.32 523.62 215.34 524.28 216.08L523.48 217.24C522.84 216.46 521.46 215.38 520.3 214.66ZM519.28 219.7L519.98 218.64C521.18 219.26 522.66 220.2 523.38 220.92L522.62 222.1C521.92 221.38 520.48 220.36 519.28 219.7ZM539.92 213.66C538.26 216.04 535.04 218.8 531.66 220.6C531.48 220.24 531.06 219.72 530.74 219.4C534.2 217.66 537.52 214.7 539.06 212.18H540.6C542.72 215.08 546.18 217.76 549.32 219.16C548.96 219.52 548.6 220.04 548.34 220.48C545.24 218.88 541.76 216.14 539.92 213.66ZM534.96 218.3H545V219.66H534.96V218.3ZM532.38 222.32H547.6V223.66H532.38V222.32ZM531.46 228.64H548.56V229.96H531.46V228.64ZM539.12 218.82H540.7V229.34H539.12V218.82ZM534.04 224.68L535.26 224.18C536.08 225.28 536.9 226.8 537.18 227.8L535.88 228.36C535.62 227.36 534.84 225.8 534.04 224.68ZM544.5 224.14L545.92 224.72C545.16 225.98 544.22 227.42 543.48 228.36L542.34 227.86C543.06 226.88 544 225.28 544.5 224.14Z" fill="#333333"/>
<mask id="mask9_496_41858" style="mask-type:luminance" maskUnits="userSpaceOnUse" x="500" y="196" width="398" height="52">
<path d="M500 196H898V248H500V196Z" fill="#333333"/>
</mask>
<g mask="url(#mask9_496_41858)">
<path d="M500.5 248V196H499.5V248H500.5Z" fill="#333333"/>
</g>
</g>
<path d="M898.5 243.5C898.5 246.538 896.038 249 893 249H5C1.96243 249 -0.5 246.538 -0.5 243.5L0.5 243C0.5 245.209 2.51472 247 5 247H893C895.485 247 897.5 245.209 897.5 243L898.5 243.5ZM5 249C1.96243 249 -0.5 246.538 -0.5 243.5V196H0.5V243C0.5 245.209 2.51472 247 5 247V249ZM898.5 196V243.5C898.5 246.538 896.038 249 893 249V247C895.485 247 897.5 245.209 897.5 243V196H898.5Z" fill="#333333"/>
</g>
</g>
<defs>
<clipPath id="clip0_496_41858">
<rect width="898" height="248" fill="white"/>
</clipPath>
</defs>
</svg>
