<svg width="202" height="67" viewBox="0 0 202 67" fill="none" xmlns="http://www.w3.org/2000/svg">
<path d="M10.3359 34.8513L3.00781 33.1287L5.41406 12.7849H28.6836V19.949H12.9336L12.0312 27.8513C12.4688 27.5961 13.207 27.2953 14.2461 26.949C15.3034 26.5844 16.4701 26.4021 17.7461 26.4021C19.7148 26.4021 21.4557 26.7029 22.9688 27.3044C24.5 27.8878 25.7943 28.7537 26.8516 29.9021C27.9089 31.0323 28.7018 32.4268 29.2305 34.0857C29.7773 35.7445 30.0508 37.6404 30.0508 39.7732C30.0508 41.4867 29.7682 43.1456 29.2031 44.7498C28.6562 46.3357 27.8086 47.7667 26.6602 49.0427C25.5299 50.3005 24.099 51.3031 22.3672 52.0505C20.6354 52.7797 18.5846 53.1443 16.2148 53.1443C14.4466 53.1443 12.724 52.8708 11.0469 52.324C9.36979 51.7771 7.85677 50.9932 6.50781 49.9724C5.17708 48.9333 4.11979 47.6847 3.33594 46.2263C2.57031 44.7498 2.19661 43.1 2.21484 41.2771H11.4844C11.5391 42.2432 11.7669 43.0818 12.168 43.7927C12.569 44.5037 13.1068 45.0597 13.7812 45.4607C14.474 45.8435 15.2669 46.0349 16.1602 46.0349C17.0716 46.0349 17.8281 45.8526 18.4297 45.488C19.0312 45.1235 19.5052 44.6222 19.8516 43.9841C20.1979 43.3461 20.444 42.6169 20.5898 41.7966C20.7357 40.9581 20.8086 40.074 20.8086 39.1443C20.8086 38.1599 20.6992 37.2758 20.4805 36.4919C20.2799 35.7081 19.9518 35.0427 19.4961 34.4958C19.0404 33.9307 18.4479 33.5024 17.7188 33.2107C17.0078 32.919 16.151 32.7732 15.1484 32.7732C13.8177 32.7732 12.7695 33.0011 12.0039 33.4568C11.2383 33.9125 10.6823 34.3774 10.3359 34.8513ZM43.9961 45.6521L43.9414 51.5037C43.9414 53.7094 43.3945 55.8878 42.3008 58.0388C41.2253 60.1899 39.9036 61.949 38.3359 63.3162L33.6602 61.1287C34.043 60.2901 34.4622 59.4425 34.918 58.5857C35.3737 57.7472 35.7656 56.7992 36.0938 55.7419C36.4219 54.6847 36.5859 53.4451 36.5859 52.0232V45.6521H43.9961ZM77.7109 12.7849V17.7068L62.8359 52.5974H53.1016L68.0039 19.8943H49V12.7849H77.7109ZM110.168 29.0544V36.3279C110.168 39.1899 109.831 41.6781 109.156 43.7927C108.5 45.9073 107.552 47.6573 106.312 49.0427C105.091 50.4281 103.633 51.4581 101.938 52.1326C100.242 52.807 98.3737 53.1443 96.332 53.1443C94.6914 53.1443 93.1602 52.9347 91.7383 52.5154C90.3164 52.0779 89.0312 51.4216 87.8828 50.5466C86.7526 49.6534 85.7773 48.5414 84.957 47.2107C84.1367 45.88 83.5078 44.3123 83.0703 42.5076C82.6328 40.6847 82.4141 38.6248 82.4141 36.3279V29.0544C82.4141 26.1742 82.7422 23.686 83.3984 21.5896C84.0729 19.475 85.0299 17.725 86.2695 16.3396C87.5091 14.9542 88.9766 13.9242 90.6719 13.2498C92.3672 12.5753 94.2357 12.238 96.2773 12.238C97.918 12.238 99.4401 12.4568 100.844 12.8943C102.266 13.3136 103.551 13.9698 104.699 14.863C105.848 15.738 106.823 16.8409 107.625 18.1716C108.445 19.5024 109.074 21.0792 109.512 22.9021C109.949 24.7068 110.168 26.7576 110.168 29.0544ZM100.953 37.449V27.8787C100.953 26.6026 100.88 25.4906 100.734 24.5427C100.607 23.5948 100.406 22.7927 100.133 22.1365C99.8776 21.4802 99.5586 20.9516 99.1758 20.5505C98.793 20.1313 98.3555 19.8305 97.8633 19.6482C97.3893 19.4477 96.8607 19.3474 96.2773 19.3474C95.5482 19.3474 94.8919 19.5024 94.3086 19.8123C93.7435 20.1039 93.2604 20.5779 92.8594 21.2341C92.4583 21.8904 92.1484 22.7654 91.9297 23.8591C91.7292 24.9529 91.6289 26.2927 91.6289 27.8787V37.449C91.6289 38.7432 91.6927 39.8735 91.8203 40.8396C91.9661 41.7875 92.1667 42.5987 92.4219 43.2732C92.6953 43.9294 93.0234 44.4672 93.4062 44.8865C93.7891 45.2875 94.2266 45.5792 94.7188 45.7615C95.2109 45.9438 95.7487 46.0349 96.332 46.0349C97.043 46.0349 97.681 45.8891 98.2461 45.5974C98.8112 45.3057 99.2943 44.8318 99.6953 44.1755C100.115 43.5011 100.424 42.6169 100.625 41.5232C100.844 40.4112 100.953 39.0531 100.953 37.449ZM142.652 29.0544V36.3279C142.652 39.1899 142.315 41.6781 141.641 43.7927C140.984 45.9073 140.036 47.6573 138.797 49.0427C137.576 50.4281 136.117 51.4581 134.422 52.1326C132.727 52.807 130.858 53.1443 128.816 53.1443C127.176 53.1443 125.645 52.9347 124.223 52.5154C122.801 52.0779 121.516 51.4216 120.367 50.5466C119.237 49.6534 118.262 48.5414 117.441 47.2107C116.621 45.88 115.992 44.3123 115.555 42.5076C115.117 40.6847 114.898 38.6248 114.898 36.3279V29.0544C114.898 26.1742 115.227 23.686 115.883 21.5896C116.557 19.475 117.514 17.725 118.754 16.3396C119.993 14.9542 121.461 13.9242 123.156 13.2498C124.852 12.5753 126.72 12.238 128.762 12.238C130.402 12.238 131.924 12.4568 133.328 12.8943C134.75 13.3136 136.035 13.9698 137.184 14.863C138.332 15.738 139.307 16.8409 140.109 18.1716C140.93 19.5024 141.559 21.0792 141.996 22.9021C142.434 24.7068 142.652 26.7576 142.652 29.0544ZM133.438 37.449V27.8787C133.438 26.6026 133.365 25.4906 133.219 24.5427C133.091 23.5948 132.891 22.7927 132.617 22.1365C132.362 21.4802 132.043 20.9516 131.66 20.5505C131.277 20.1313 130.84 19.8305 130.348 19.6482C129.874 19.4477 129.345 19.3474 128.762 19.3474C128.033 19.3474 127.376 19.5024 126.793 19.8123C126.228 20.1039 125.745 20.5779 125.344 21.2341C124.943 21.8904 124.633 22.7654 124.414 23.8591C124.214 24.9529 124.113 26.2927 124.113 27.8787V37.449C124.113 38.7432 124.177 39.8735 124.305 40.8396C124.451 41.7875 124.651 42.5987 124.906 43.2732C125.18 43.9294 125.508 44.4672 125.891 44.8865C126.273 45.2875 126.711 45.5792 127.203 45.7615C127.695 45.9438 128.233 46.0349 128.816 46.0349C129.527 46.0349 130.165 45.8891 130.73 45.5974C131.296 45.3057 131.779 44.8318 132.18 44.1755C132.599 43.5011 132.909 42.6169 133.109 41.5232C133.328 40.4112 133.438 39.0531 133.438 37.449ZM149.455 8.58141H193.415V15.2454H156.231V57.6374H149.455V8.58141ZM190.167 8.58141H196.999V49.7414C196.999 53.3814 196.215 55.2854 193.863 56.4054C191.567 57.4694 188.207 57.6374 183.167 57.6374C182.887 55.7334 181.711 52.6534 180.759 50.9174C184.007 51.0854 187.647 51.0294 188.767 51.0294C189.831 51.0294 190.167 50.6934 190.167 49.6854V8.58141ZM153.151 29.4134H193.471V36.0774H153.151V29.4134ZM169.447 12.2214H176.167V32.7174H169.447V12.2214Z" fill="#575757"/>
</svg>
