<svg width="466" height="120" viewBox="0 0 466 120" fill="none" xmlns="http://www.w3.org/2000/svg">
<g clip-path="url(#clip0_514_966)">
<mask id="mask0_514_966" style="mask-type:luminance" maskUnits="userSpaceOnUse" x="0" y="0" width="466" height="120">
<path d="M466 0H0V120H466V0Z" fill="white"/>
</mask>
<g mask="url(#mask0_514_966)">
<path d="M24 0H21V120H24V0Z" fill="#333333"/>
<path d="M5 18H461V15H5V18ZM461 102H5V105H461V102Z" fill="#333333"/>
<path d="M445 0H442V120H445V0Z" fill="#333333"/>
</g>
<path d="M145.148 42.088C144.7 42.704 143.692 44.384 143.188 45.56C140.892 50.88 136.748 58.496 131.932 64.096C125.66 71.32 117.204 78.264 108.524 82.352L102.7 76.304C111.772 72.944 120.396 66.112 125.66 60.288C129.356 56.088 132.772 50.544 134.06 46.568C131.708 46.568 117.428 46.568 115.02 46.568C112.724 46.568 109.644 46.848 108.412 46.96V38.952C109.924 39.176 113.396 39.344 115.02 39.344C117.988 39.344 132.324 39.344 134.788 39.344C137.252 39.344 139.436 39.064 140.612 38.672L145.148 42.088ZM132.66 59.448C138.428 64.152 146.38 72.496 150.02 76.976L143.636 82.52C139.492 76.752 133.388 70.088 127.396 64.656L132.66 59.448ZM172.028 74.68C172.028 70.368 172.028 47.184 172.028 42.48C172.028 40.464 171.86 37.72 171.468 35.704H180.204C179.98 37.72 179.7 40.128 179.7 42.48C179.7 48.64 179.756 70.536 179.756 74.68C179.756 76.248 179.98 80.168 180.26 82.464H171.468C171.86 80.28 172.028 76.864 172.028 74.68ZM178.076 50.208C185.524 52.28 197.62 56.704 203.108 59.392L199.972 67.176C193.588 63.872 184.18 60.288 178.076 58.272V50.208ZM221.42 77.816C222.036 76.416 222.148 75.464 222.148 74.176C222.148 69.92 222.148 50.04 222.148 43.768C222.148 41.696 221.812 39.008 221.476 37.44H230.268C229.988 39.568 229.764 41.64 229.764 43.768C229.764 49.984 229.764 68.632 229.764 72.888C238.892 70.312 251.38 63.144 258.548 54.352L262.524 60.736C254.852 69.864 243.204 76.584 229.988 80.896C229.26 81.12 228.028 81.512 226.684 82.408L221.42 77.816ZM294.724 46.792C295.788 49.144 298.532 56.48 299.316 59.056L292.652 61.352C291.924 58.664 289.46 51.888 288.116 48.976L294.724 46.792ZM315.388 50.824C314.772 52.672 314.436 53.848 314.1 54.968C312.644 60.624 310.236 66.448 306.428 71.32C301.22 78.096 294.276 82.744 287.724 85.264L281.844 79.272C287.948 77.592 295.788 73.336 300.38 67.512C304.188 62.808 306.932 55.36 307.548 48.304L315.388 50.824ZM281.732 49.704C283.132 52.56 285.876 59.392 286.94 62.528L280.108 65.048C279.212 62.08 276.356 54.576 275.012 52.168L281.732 49.704ZM331.012 39.792C335.324 39.904 343.948 39.848 350.108 38.952C355.764 38.112 361.42 36.88 364.22 35.536L368.868 41.696C366.964 42.2 365.452 42.592 364.556 42.816C361.084 43.712 356.604 44.44 352.292 45.056C345.908 45.952 337.676 46.176 332.804 46.288L331.012 39.792ZM333.42 78.432C343.332 73.896 347.756 66.504 347.756 56.032C347.756 56.032 347.756 52.392 347.756 44.44L355.092 43.6C355.092 48.416 355.092 55.864 355.092 55.864C355.092 67.176 351.396 76.752 340.588 83.248L333.42 78.432ZM326.812 53.232C328.38 53.344 330.228 53.512 332.02 53.512C335.548 53.512 365.508 53.512 369.26 53.512C370.436 53.512 373.068 53.344 374.3 53.232V60.456C372.788 60.344 370.94 60.232 369.372 60.232C365.844 60.232 335.38 60.232 332.076 60.232C330.34 60.232 328.268 60.344 326.812 60.456V53.232Z" fill="#333333"/>
</g>
<defs>
<clipPath id="clip0_514_966">
<rect width="466" height="120" fill="white"/>
</clipPath>
</defs>
</svg>
