<svg width="131" height="64" viewBox="0 0 131 64" fill="none" xmlns="http://www.w3.org/2000/svg">
<path d="M13.1743 3.22607H13.4819V4.91064H13.3574C12.8008 4.91064 12.3052 4.99365 11.8706 5.15967C11.436 5.32568 11.0674 5.5625 10.7646 5.87012C10.4668 6.17285 10.2373 6.53906 10.0762 6.96875C9.91992 7.39844 9.8418 7.87939 9.8418 8.41162V10.1841C9.8418 10.5649 9.87842 10.9019 9.95166 11.1948C10.0298 11.4829 10.1396 11.7246 10.2812 11.9199C10.4277 12.1104 10.5986 12.2544 10.7939 12.3521C10.9893 12.4448 11.209 12.4912 11.4531 12.4912C11.6826 12.4912 11.8901 12.4424 12.0757 12.3447C12.2661 12.2471 12.4272 12.1104 12.5591 11.9346C12.6958 11.7539 12.7983 11.5439 12.8667 11.3047C12.9399 11.0605 12.9766 10.7944 12.9766 10.5063C12.9766 10.2183 12.9399 9.95215 12.8667 9.70801C12.7983 9.46387 12.6958 9.25391 12.5591 9.07812C12.4224 8.89746 12.2563 8.7583 12.061 8.66064C11.8657 8.56299 11.646 8.51416 11.4019 8.51416C11.0698 8.51416 10.7769 8.59229 10.5229 8.74854C10.2739 8.8999 10.0786 9.09521 9.93701 9.33447C9.79541 9.57373 9.71973 9.8252 9.70996 10.0889L9.07275 9.67871C9.0874 9.30273 9.16553 8.94629 9.30713 8.60938C9.45361 8.27246 9.65381 7.97461 9.90771 7.71582C10.1665 7.45215 10.4766 7.24707 10.8379 7.10059C11.1992 6.94922 11.6069 6.87354 12.061 6.87354C12.5591 6.87354 12.9961 6.96875 13.3721 7.15918C13.7529 7.34961 14.0703 7.61084 14.3242 7.94287C14.5781 8.2749 14.7686 8.6582 14.8955 9.09277C15.0225 9.52734 15.0859 9.99121 15.0859 10.4844C15.0859 11.002 15.0005 11.4829 14.8296 11.9272C14.6636 12.3716 14.4219 12.7598 14.1045 13.0918C13.792 13.4238 13.416 13.6826 12.9766 13.8682C12.5371 14.0537 12.0439 14.1465 11.4971 14.1465C10.9307 14.1465 10.4155 14.0439 9.95166 13.8389C9.49268 13.6289 9.09717 13.3359 8.76514 12.96C8.43311 12.584 8.17676 12.1372 7.99609 11.6196C7.82031 11.1021 7.73242 10.5356 7.73242 9.92041V9.1001C7.73242 8.24072 7.85693 7.45459 8.10596 6.7417C8.35986 6.02393 8.72363 5.40381 9.19727 4.88135C9.6709 4.354 10.2422 3.94629 10.9111 3.6582C11.5801 3.37012 12.3345 3.22607 13.1743 3.22607ZM23.5234 7.73047V9.57617C23.5234 10.377 23.438 11.0679 23.2671 11.6489C23.0962 12.2251 22.8496 12.6987 22.5273 13.0698C22.21 13.436 21.8315 13.707 21.3921 13.8828C20.9526 14.0586 20.4644 14.1465 19.9272 14.1465C19.4976 14.1465 19.0972 14.0928 18.7261 13.9854C18.355 13.873 18.0205 13.6997 17.7227 13.4653C17.4297 13.231 17.1758 12.9355 16.9609 12.5791C16.751 12.2178 16.5898 11.7881 16.4775 11.29C16.3652 10.792 16.3091 10.2207 16.3091 9.57617V7.73047C16.3091 6.92969 16.3945 6.24365 16.5654 5.67236C16.7412 5.09619 16.9878 4.625 17.3052 4.25879C17.6274 3.89258 18.0083 3.62402 18.4478 3.45312C18.8872 3.27734 19.3755 3.18945 19.9126 3.18945C20.3423 3.18945 20.7402 3.24561 21.1064 3.35791C21.4775 3.46533 21.812 3.63379 22.1099 3.86328C22.4077 4.09277 22.6616 4.38818 22.8716 4.74951C23.0815 5.10596 23.2427 5.5332 23.355 6.03125C23.4673 6.52441 23.5234 7.09082 23.5234 7.73047ZM21.4067 9.85449V7.44482C21.4067 7.05908 21.3848 6.72217 21.3408 6.43408C21.3018 6.146 21.2407 5.90186 21.1577 5.70166C21.0747 5.49658 20.9722 5.33057 20.8501 5.20361C20.728 5.07666 20.5889 4.98389 20.4326 4.92529C20.2764 4.8667 20.103 4.8374 19.9126 4.8374C19.6733 4.8374 19.4609 4.88379 19.2754 4.97656C19.0947 5.06934 18.9409 5.21826 18.814 5.42334C18.687 5.62354 18.5894 5.89209 18.521 6.229C18.4575 6.56104 18.4258 6.96631 18.4258 7.44482V9.85449C18.4258 10.2402 18.4453 10.5796 18.4844 10.8726C18.5283 11.1655 18.5918 11.417 18.6748 11.627C18.7627 11.832 18.8652 12.0005 18.9824 12.1323C19.1045 12.2593 19.2437 12.3521 19.3999 12.4106C19.561 12.4692 19.7368 12.4985 19.9272 12.4985C20.1616 12.4985 20.3691 12.4521 20.5498 12.3594C20.7354 12.2617 20.8916 12.1104 21.0186 11.9053C21.1504 11.6953 21.248 11.4219 21.3115 11.085C21.375 10.748 21.4067 10.3379 21.4067 9.85449ZM27.1366 6.77H35.2516V8.525H27.1366V6.77ZM34.6666 6.77H36.5566C36.5566 6.77 36.5416 7.325 36.5266 7.55C36.3616 12.11 36.1816 13.895 35.6566 14.51C35.2816 15.02 34.8616 15.155 34.2916 15.245C33.7666 15.32 32.8966 15.305 32.0116 15.275C31.9816 14.75 31.7416 13.97 31.4116 13.46C32.2516 13.535 33.0316 13.55 33.4066 13.55C33.6766 13.55 33.8416 13.505 34.0066 13.34C34.3666 12.95 34.5316 11.27 34.6666 7.1V6.77ZM28.8316 1.46L30.7816 2.03C29.6566 4.64 27.8266 7.055 25.9366 8.54C25.5916 8.15 24.8116 7.43 24.3766 7.085C26.2666 5.84 27.9316 3.74 28.8316 1.46ZM34.5466 1.43C35.4916 3.335 37.3816 5.525 39.0316 6.785C38.5366 7.175 37.8466 7.91 37.5016 8.42C35.8066 6.86 33.9616 4.43 32.7766 2.135L34.5466 1.43ZM29.8216 7.28H31.7716C31.4866 10.655 30.8416 13.79 26.3716 15.455C26.1466 14.96 25.6216 14.195 25.2016 13.805C29.2216 12.485 29.5816 9.95 29.8216 7.28Z" fill="#575757"/>
<path d="M24.0156 25.25V27.6719L15.2188 48H10.4688L19.2656 28.7656H7.9375V25.25H24.0156ZM31.3906 44.2031L31.375 47.2188C31.375 48.375 31.0833 49.5417 30.5 50.7188C29.9271 51.8958 29.1979 52.8594 28.3125 53.6094L25.9688 52.4062C26.2292 51.9271 26.4844 51.4479 26.7344 50.9688C26.9844 50.4896 27.1927 49.9635 27.3594 49.3906C27.526 48.8177 27.6094 48.1667 27.6094 47.4375V44.2031H31.3906ZM50.375 44.4844V48H34.8125V45L42.1719 37.1094C42.9115 36.2865 43.4948 35.5625 43.9219 34.9375C44.349 34.3021 44.6562 33.7344 44.8438 33.2344C45.0417 32.724 45.1406 32.2396 45.1406 31.7812C45.1406 31.0938 45.026 30.5052 44.7969 30.0156C44.5677 29.5156 44.2292 29.1302 43.7812 28.8594C43.3438 28.5885 42.8021 28.4531 42.1562 28.4531C41.4688 28.4531 40.875 28.6198 40.375 28.9531C39.8854 29.2865 39.5104 29.75 39.25 30.3438C39 30.9375 38.875 31.6094 38.875 32.3594H34.3594C34.3594 31.0052 34.6823 29.7656 35.3281 28.6406C35.974 27.5052 36.8854 26.6042 38.0625 25.9375C39.2396 25.2604 40.6354 24.9219 42.25 24.9219C43.8438 24.9219 45.1875 25.1823 46.2812 25.7031C47.3854 26.2135 48.2188 26.9531 48.7812 27.9219C49.3542 28.8802 49.6406 30.026 49.6406 31.3594C49.6406 32.1094 49.5208 32.8438 49.2812 33.5625C49.0417 34.2708 48.6979 34.9792 48.25 35.6875C47.8125 36.3854 47.2812 37.0938 46.6562 37.8125C46.0312 38.5312 45.3385 39.276 44.5781 40.0469L40.625 44.4844H50.375ZM68.5 34.625V38.5625C68.5 40.2708 68.3177 41.7448 67.9531 42.9844C67.5885 44.2135 67.0625 45.224 66.375 46.0156C65.6979 46.7969 64.8906 47.375 63.9531 47.75C63.0156 48.125 61.974 48.3125 60.8281 48.3125C59.9115 48.3125 59.0573 48.1979 58.2656 47.9688C57.474 47.7292 56.7604 47.3594 56.125 46.8594C55.5 46.3594 54.9583 45.7292 54.5 44.9688C54.0521 44.1979 53.7083 43.2812 53.4688 42.2188C53.2292 41.1562 53.1094 39.9375 53.1094 38.5625V34.625C53.1094 32.9167 53.2917 31.4531 53.6562 30.2344C54.0312 29.0052 54.5573 28 55.2344 27.2188C55.9219 26.4375 56.7344 25.8646 57.6719 25.5C58.6094 25.125 59.651 24.9375 60.7969 24.9375C61.7135 24.9375 62.5625 25.0573 63.3438 25.2969C64.1354 25.526 64.849 25.8854 65.4844 26.375C66.1198 26.8646 66.6615 27.4948 67.1094 28.2656C67.5573 29.026 67.901 29.9375 68.1406 31C68.3802 32.0521 68.5 33.2604 68.5 34.625ZM63.9844 39.1562V34.0156C63.9844 33.1927 63.9375 32.474 63.8438 31.8594C63.7604 31.2448 63.6302 30.724 63.4531 30.2969C63.276 29.8594 63.0573 29.5052 62.7969 29.2344C62.5365 28.9635 62.2396 28.7656 61.9062 28.6406C61.5729 28.5156 61.2031 28.4531 60.7969 28.4531C60.2865 28.4531 59.8333 28.5521 59.4375 28.75C59.0521 28.9479 58.724 29.2656 58.4531 29.7031C58.1823 30.1302 57.974 30.7031 57.8281 31.4219C57.6927 32.1302 57.625 32.9948 57.625 34.0156V39.1562C57.625 39.9792 57.6667 40.7031 57.75 41.3281C57.8438 41.9531 57.9792 42.4896 58.1562 42.9375C58.3438 43.375 58.5625 43.7344 58.8125 44.0156C59.0729 44.2865 59.3698 44.4844 59.7031 44.6094C60.0469 44.7344 60.4219 44.7969 60.8281 44.7969C61.3281 44.7969 61.7708 44.6979 62.1562 44.5C62.5521 44.2917 62.8854 43.9688 63.1562 43.5312C63.4375 43.0833 63.6458 42.5 63.7812 41.7812C63.9167 41.0625 63.9844 40.1875 63.9844 39.1562ZM86.875 34.625V38.5625C86.875 40.2708 86.6927 41.7448 86.3281 42.9844C85.9635 44.2135 85.4375 45.224 84.75 46.0156C84.0729 46.7969 83.2656 47.375 82.3281 47.75C81.3906 48.125 80.349 48.3125 79.2031 48.3125C78.2865 48.3125 77.4323 48.1979 76.6406 47.9688C75.849 47.7292 75.1354 47.3594 74.5 46.8594C73.875 46.3594 73.3333 45.7292 72.875 44.9688C72.4271 44.1979 72.0833 43.2812 71.8438 42.2188C71.6042 41.1562 71.4844 39.9375 71.4844 38.5625V34.625C71.4844 32.9167 71.6667 31.4531 72.0312 30.2344C72.4062 29.0052 72.9323 28 73.6094 27.2188C74.2969 26.4375 75.1094 25.8646 76.0469 25.5C76.9844 25.125 78.026 24.9375 79.1719 24.9375C80.0885 24.9375 80.9375 25.0573 81.7188 25.2969C82.5104 25.526 83.224 25.8854 83.8594 26.375C84.4948 26.8646 85.0365 27.4948 85.4844 28.2656C85.9323 29.026 86.276 29.9375 86.5156 31C86.7552 32.0521 86.875 33.2604 86.875 34.625ZM82.3594 39.1562V34.0156C82.3594 33.1927 82.3125 32.474 82.2188 31.8594C82.1354 31.2448 82.0052 30.724 81.8281 30.2969C81.651 29.8594 81.4323 29.5052 81.1719 29.2344C80.9115 28.9635 80.6146 28.7656 80.2812 28.6406C79.9479 28.5156 79.5781 28.4531 79.1719 28.4531C78.6615 28.4531 78.2083 28.5521 77.8125 28.75C77.4271 28.9479 77.099 29.2656 76.8281 29.7031C76.5573 30.1302 76.349 30.7031 76.2031 31.4219C76.0677 32.1302 76 32.9948 76 34.0156V39.1562C76 39.9792 76.0417 40.7031 76.125 41.3281C76.2188 41.9531 76.3542 42.4896 76.5312 42.9375C76.7188 43.375 76.9375 43.7344 77.1875 44.0156C77.4479 44.2865 77.7448 44.4844 78.0781 44.6094C78.4219 44.7344 78.7969 44.7969 79.2031 44.7969C79.7031 44.7969 80.1458 44.6979 80.5312 44.5C80.9271 44.2917 81.2604 43.9688 81.5312 43.5312C81.8125 43.0833 82.0208 42.5 82.1562 41.7812C82.2917 41.0625 82.3594 40.1875 82.3594 39.1562ZM90.903 22.848H116.023V26.656H94.775V50.88H90.903V22.848ZM114.167 22.848H118.071V46.368C118.071 48.448 117.623 49.536 116.279 50.176C114.967 50.784 113.047 50.88 110.167 50.88C110.007 49.792 109.335 48.032 108.791 47.04C110.647 47.136 112.727 47.104 113.367 47.104C113.975 47.104 114.167 46.912 114.167 46.336V22.848ZM93.015 34.752H116.055V38.56H93.015V34.752ZM102.327 24.928H106.167V36.64H102.327V24.928Z" fill="#575757"/>
<line x1="130.365" y1="11.4182" x2="0.365206" y2="62.4182" stroke="#575757" stroke-width="2"/>
</svg>
