<svg width="224" height="50" viewBox="0 0 224 50" fill="none" xmlns="http://www.w3.org/2000/svg">
<mask id="mask0_316_1853" style="mask-type:luminance" maskUnits="userSpaceOnUse" x="0" y="0" width="224" height="50">
<path d="M224 0H0V49.58H224V0Z" fill="white"/>
</mask>
<g mask="url(#mask0_316_1853)">
<path d="M156.086 0H49.9805V21.3547H156.086V0Z" fill="#333333"/>
<g filter="url(#filter0_d_316_1853)">
<path d="M74.7503 6.36262C74.6145 6.50969 74.3089 6.91078 74.1561 7.19155C73.46 8.46169 72.2038 10.28 70.7437 11.617C68.8423 13.3417 66.2788 14.9996 63.6474 15.9756L61.8818 14.5316C64.6321 13.7294 67.2465 12.0983 68.8423 10.7078C69.9628 9.70509 70.9984 8.38147 71.3889 7.43221C70.6758 7.43221 66.3467 7.43221 65.6167 7.43221C64.9207 7.43221 63.987 7.49906 63.6135 7.5258V5.6139C64.0718 5.66738 65.1244 5.70749 65.6167 5.70749C66.5165 5.70749 70.8626 5.70749 71.6096 5.70749C72.3565 5.70749 73.0186 5.64064 73.3752 5.54705L74.7503 6.36262ZM70.9644 10.5073C72.7131 11.6304 75.1238 13.6225 76.2273 14.6921L74.2919 16.0157C73.0356 14.6386 71.1851 13.0476 69.3686 11.7507L70.9644 10.5073ZM82.8992 14.1439C82.8992 13.1144 82.8992 7.57928 82.8992 6.45621C82.8992 5.97489 82.8482 5.31977 82.7294 4.83845H85.3778C85.3099 5.31977 85.225 5.89467 85.225 6.45621C85.225 7.9269 85.242 13.1545 85.242 14.1439C85.242 14.5183 85.3099 15.4542 85.3948 16.0023H82.7294C82.8482 15.4809 82.8992 14.6653 82.8992 14.1439ZM84.7327 8.30125C86.9906 8.79594 90.6576 9.85216 92.3213 10.4939L91.3706 12.3523C89.4352 11.5635 86.5831 10.7078 84.7327 10.2265V8.30125ZM97.8727 14.8926C98.0595 14.5584 98.0934 14.3311 98.0934 14.0236C98.0934 13.0075 98.0934 8.26114 98.0934 6.76372C98.0934 6.26903 97.9916 5.62727 97.8897 5.25292H100.555C100.47 5.76097 100.402 6.25566 100.402 6.76372C100.402 8.24777 100.402 12.7 100.402 13.7161C103.169 13.101 106.955 11.3897 109.128 9.29063L110.334 10.8148C108.008 12.9941 104.477 14.5985 100.47 15.628C100.249 15.6814 99.876 15.775 99.4686 15.9889L97.8727 14.8926ZM120.095 7.48569C120.418 8.04723 121.25 9.79868 121.488 10.4137L119.467 10.9619C119.247 10.3201 118.5 8.70235 118.092 8.00712L120.095 7.48569ZM126.36 8.44832C126.173 8.88953 126.071 9.1703 125.969 9.4377C125.528 10.7881 124.798 12.1785 123.644 13.3417C122.065 14.9595 119.96 16.0692 117.973 16.6708L116.191 15.2402C118.041 14.8391 120.418 13.823 121.81 12.4326C122.964 11.3095 123.796 9.53129 123.983 7.84668L126.36 8.44832ZM116.157 8.18093C116.581 8.86279 117.413 10.4939 117.736 11.2426L115.664 11.8443C115.393 11.1357 114.527 9.34411 114.12 8.7692L116.157 8.18093ZM131.096 5.81445C132.404 5.84119 135.018 5.82782 136.885 5.6139C138.6 5.41336 140.315 5.11922 141.164 4.79834L142.573 6.26903C141.996 6.38936 141.537 6.48295 141.266 6.53643C140.213 6.75035 138.855 6.92415 137.548 7.07122C135.612 7.28514 133.117 7.33862 131.64 7.36536L131.096 5.81445ZM131.826 15.0397C134.831 13.9567 136.172 12.1919 136.172 9.69172C136.172 9.69172 136.172 8.82268 136.172 6.92415L138.396 6.72361C138.396 7.87342 138.396 9.65162 138.396 9.65162C138.396 12.3523 137.276 14.6386 133.999 16.1895L131.826 15.0397ZM129.823 9.02323C130.298 9.04997 130.859 9.09008 131.402 9.09008C132.472 9.09008 141.554 9.09008 142.692 9.09008C143.048 9.09008 143.846 9.04997 144.219 9.02323V10.7479C143.761 10.7212 143.201 10.6945 142.726 10.6945C141.656 10.6945 132.421 10.6945 131.419 10.6945C130.893 10.6945 130.265 10.7212 129.823 10.7479V9.02323Z" fill="white"/>
</g>
<path d="M10.0263 20.5892H14.677C16.1669 20.5892 17.395 20.3142 18.3614 19.7643C19.3277 19.1924 20.0425 18.4005 20.5055 17.3887C20.9887 16.3548 21.2303 15.156 21.2303 13.7922C21.2303 12.5603 21.0089 11.4715 20.5659 10.5256C20.1432 9.55772 19.4888 8.80982 18.603 8.28188C17.7171 7.73197 16.5997 7.45699 15.2508 7.45699C14.1838 7.45699 13.1972 7.68796 12.2912 8.14991C11.3853 8.61184 10.6605 9.26076 10.1169 10.0966C9.57328 10.9325 9.30149 11.9444 9.30149 13.1322H0.573793C0.573793 10.4926 1.21805 8.1939 2.50656 6.23615C3.81521 4.27843 5.5668 2.74964 7.76131 1.64978C9.9558 0.549926 12.3718 0 15.0092 0C17.9889 0 20.5961 0.527929 22.8309 1.58379C25.0656 2.61765 26.8071 4.14644 28.0554 6.17018C29.3037 8.1939 29.9278 10.7016 29.9278 13.6932C29.9278 15.211 29.6057 16.6848 28.9615 18.1146C28.3171 19.5224 27.3909 20.7983 26.183 21.942C24.9953 23.0639 23.5456 23.9658 21.8343 24.6477C20.123 25.3077 18.2003 25.6376 16.0662 25.6376H10.0263V20.5892ZM10.0263 27.8153V22.8988H16.0662C18.462 22.8988 20.5659 23.196 22.3779 23.7898C24.1899 24.3836 25.71 25.2415 26.938 26.3635C28.1662 27.4634 29.0924 28.7721 29.7165 30.29C30.3407 31.7857 30.6526 33.4466 30.6526 35.2723C30.6526 37.516 30.26 39.5176 29.4748 41.2774C28.6897 43.0152 27.5824 44.489 26.1528 45.6988C24.7435 46.9088 23.0926 47.8326 21.2001 48.4705C19.3076 49.0864 17.244 49.3943 15.0092 49.3943C13.157 49.3943 11.3349 49.1194 9.54308 48.5694C7.77136 47.9975 6.16073 47.1507 4.71114 46.0288C3.28169 44.8849 2.13411 43.4551 1.26838 41.7394C0.422794 40.0015 0 37.9448 0 35.5692H8.72769C8.72769 36.8011 9.00956 37.901 9.57328 38.8688C10.137 39.8367 10.9121 40.5956 11.8987 41.1454C12.9053 41.6954 14.0227 41.9705 15.2508 41.9705C16.64 41.9705 17.8278 41.6954 18.8144 41.1454C19.821 40.5735 20.5861 39.7817 21.1095 38.7698C21.6531 37.7359 21.9249 36.5371 21.9249 35.1733C21.9249 33.4135 21.633 32.0058 21.0491 30.9498C20.4653 29.872 19.6297 29.08 18.5426 28.5742C17.4554 28.0682 16.1669 27.8153 14.677 27.8153H10.0263Z" fill="#333333"/>
<path d="M116.794 23.9825C116.319 24.5976 115.674 25.7741 115.368 26.4159C114.078 29.0631 112.007 32.5928 109.189 35.4807C106.031 38.6894 101.855 42.1389 95.2679 45L91.499 42.2726C97.6786 39.9462 101.923 36.9781 105.522 33.288C108.204 30.5071 109.732 27.7529 110.921 25.0789C111.226 24.3836 111.566 23.2873 111.735 22.6188L116.794 23.9825ZM98.12 26.5763C101.481 28.2342 106.133 30.7745 108.985 32.5393C112.618 34.7587 116.183 37.2722 118.934 39.5719L115.436 42.6469C112.482 39.9195 109.494 37.7268 105.895 35.3737C103.451 33.7693 99.4781 31.3627 95.2 29.3038L98.12 26.5763ZM149.356 22.8862C149.288 23.6349 149.254 24.4906 149.254 25.5869C149.254 26.9507 149.254 29.5444 149.254 30.8547C149.254 36.6305 147.828 39.0905 145.282 41.2832C143.041 43.2352 139.543 44.5187 137.065 45.1605L133.5 42.1924C136.895 41.5773 139.611 40.5612 141.683 38.8231C143.991 36.8177 144.467 34.8122 144.467 30.6408C144.467 29.3038 144.467 26.7367 144.467 25.5869C144.467 24.4906 144.365 23.6349 144.229 22.8862H149.356ZM133.636 23.1269C133.568 23.7419 133.5 24.3302 133.5 25.1591C133.5 26.3356 133.5 32.6997 133.5 34.1972C133.5 34.8657 133.568 35.9085 133.636 36.5235H128.678C128.746 36.0422 128.848 34.9994 128.848 34.1704C128.848 32.6462 128.848 26.3356 128.848 25.1591C128.848 24.6778 128.814 23.7419 128.712 23.1269H133.636ZM173.192 27.7796C173.837 28.9027 175.5 32.4056 175.976 33.6356L171.935 34.732C171.494 33.4484 170 30.2129 169.185 28.8224L173.192 27.7796ZM185.72 29.7049C185.347 30.5873 185.143 31.1488 184.939 31.6836C184.057 34.3843 182.597 37.1653 180.288 39.4916C177.13 42.7272 172.92 44.9466 168.947 46.1499L165.382 43.2887C169.083 42.4865 173.837 40.4543 176.621 37.6733C178.93 35.4272 180.593 31.8708 180.967 28.5016L185.72 29.7049ZM165.314 29.1701C166.163 30.5338 167.827 33.7961 168.472 35.2935L164.33 36.4968C163.786 35.0796 162.055 31.4964 161.24 30.3466L165.314 29.1701ZM200.66 41.096C200.66 39.0371 200.66 27.9668 200.66 25.7206C200.66 24.758 200.558 23.4477 200.321 22.4851H205.617C205.481 23.4477 205.312 24.5976 205.312 25.7206C205.312 28.662 205.346 39.1173 205.346 41.096C205.346 41.8447 205.481 43.7165 205.651 44.8129H200.321C200.558 43.77 200.66 42.1389 200.66 41.096ZM204.327 29.4107C208.843 30.4001 216.177 32.5125 219.504 33.7961L217.603 37.5129C213.732 35.9352 208.028 34.2239 204.327 33.2613V29.4107Z" fill="#333333"/>
<path d="M36.7598 32.2432C37.7369 32.1184 39.0573 31.8481 40.0344 31.6193C42.0415 31.1202 47.4288 29.6435 51.3108 29.6435C56.0643 29.6435 59.8407 31.8065 59.8407 35.654C59.8407 40.3543 54.1365 43.3699 44.8407 43.7443L43.2827 40.9782C50.4393 40.8534 56.0643 39.2312 56.0643 35.5916C56.0643 33.6367 54.3478 32.16 51.1788 32.16C47.2703 32.16 41.0379 34.219 38.265 35.1757L36.7598 32.2432ZM77.3759 29.394C77.0062 31.5153 76.4781 33.9486 75.5538 36.4027C73.9693 40.6039 71.6981 43.1828 68.8196 43.1828C65.8619 43.1828 63.4323 40.6247 63.4323 37.1099C63.4323 32.3264 68.7404 28.2085 75.5802 28.2085C82.1031 28.2085 86.2492 31.7857 86.2492 36.3404C86.2492 40.7078 82.8425 43.8067 76.1876 44.6178L74.1805 42.1637C75.2105 42.0597 75.9499 41.9557 76.6629 41.8309C80.0168 41.1862 82.6576 39.2936 82.6576 36.2364C82.6576 32.9711 80.0696 30.6418 75.5009 30.6418C69.9024 30.6418 66.839 34.2398 66.839 36.8603C66.839 38.9608 67.8953 39.9799 68.8988 39.9799C70.0344 39.9799 71.0379 38.6489 72.1471 35.8412C72.9129 33.8862 73.4939 31.4945 73.758 29.3108L77.3759 29.394Z" fill="#333333"/>
</g>
<defs>
<filter id="filter0_d_316_1853" x="57.8818" y="4.79834" width="90.3379" height="19.8726" filterUnits="userSpaceOnUse" color-interpolation-filters="sRGB">
<feFlood flood-opacity="0" result="BackgroundImageFix"/>
<feColorMatrix in="SourceAlpha" type="matrix" values="0 0 0 0 0 0 0 0 0 0 0 0 0 0 0 0 0 0 127 0" result="hardAlpha"/>
<feOffset dy="4"/>
<feGaussianBlur stdDeviation="2"/>
<feComposite in2="hardAlpha" operator="out"/>
<feColorMatrix type="matrix" values="0 0 0 0 0 0 0 0 0 0 0 0 0 0 0 0 0 0 1 0"/>
<feBlend mode="normal" in2="BackgroundImageFix" result="effect1_dropShadow_316_1853"/>
<feBlend mode="normal" in="SourceGraphic" in2="effect1_dropShadow_316_1853" result="shape"/>
</filter>
</defs>
</svg>
