<svg width="550" height="177" viewBox="0 0 550 177" fill="none" xmlns="http://www.w3.org/2000/svg">
<mask id="mask0_101_2879" style="mask-type:luminance" maskUnits="userSpaceOnUse" x="0" y="0" width="550" height="177">
<path d="M550 0H0V177H550V0Z" fill="white"/>
</mask>
<g mask="url(#mask0_101_2879)">
<path d="M383.264 0H122.737V76.236H383.264V0Z" fill="#333333"/>
<g filter="url(#filter0_d_101_2879)">
<path d="M183.513 22.709C183.179 23.234 182.429 24.6659 182.054 25.6682C180.345 30.2026 177.26 36.694 173.675 41.467C169.007 47.6242 162.712 53.5428 156.251 57.0271L151.916 51.8722C158.669 49.0084 165.088 43.1853 169.007 38.2213C171.758 34.6415 174.3 29.9162 175.259 26.5274C173.508 26.5274 162.879 26.5274 161.087 26.5274C159.377 26.5274 157.085 26.766 156.168 26.8615V20.0361C157.293 20.227 159.878 20.3702 161.087 20.3702C163.296 20.3702 173.967 20.3702 175.801 20.3702C177.635 20.3702 179.261 20.1315 180.136 19.7974L183.513 22.709ZM174.217 37.5054C178.511 41.5147 184.43 48.6265 187.139 52.445L182.387 57.1703C179.303 52.254 174.759 46.5741 170.299 41.9443L174.217 37.5054ZM203.521 50.488C203.521 46.8128 203.521 27.0524 203.521 23.0431C203.521 21.3248 203.396 18.986 203.104 17.2677H209.607C209.44 18.986 209.232 21.0384 209.232 23.0431C209.232 28.2934 209.273 46.956 209.273 50.488C209.273 51.8245 209.44 55.1656 209.649 57.1225H203.104C203.396 55.2611 203.521 52.3495 203.521 50.488ZM208.023 29.6299C213.567 31.3959 222.571 35.1666 226.656 37.4576L224.321 44.0922C219.569 41.2761 212.567 38.2213 208.023 36.503V29.6299ZM240.287 53.1609C240.745 51.9677 240.828 51.1562 240.828 50.0584C240.828 46.4309 240.828 29.4867 240.828 24.1409C240.828 22.3748 240.578 20.0838 240.328 18.7473H246.873C246.664 20.5611 246.497 22.3271 246.497 24.1409C246.497 29.4389 246.497 45.3331 246.497 48.9606C253.292 46.7651 262.588 40.6556 267.923 33.1619L270.883 38.6032C265.172 46.3832 256.502 52.1109 246.664 55.7861C246.122 55.977 245.205 56.3111 244.205 57.0748L240.287 53.1609ZM294.851 26.7183C295.643 28.723 297.686 34.9757 298.269 37.1713L293.309 39.1282C292.767 36.8371 290.933 31.0618 289.932 28.5798L294.851 26.7183ZM310.233 30.1549C309.774 31.73 309.524 32.7323 309.274 33.6869C308.19 38.5077 306.398 43.4717 303.563 47.6242C299.687 53.3996 294.518 57.3612 289.641 59.5091L285.264 54.4019C289.807 52.97 295.643 49.3425 299.061 44.3785C301.896 40.3692 303.938 34.0211 304.397 28.007L310.233 30.1549ZM285.18 29.2003C286.223 31.6345 288.265 37.4576 289.057 40.1305L283.972 42.2784C283.305 39.7487 281.179 33.3528 280.178 31.3004L285.18 29.2003ZM321.863 20.752C325.072 20.8475 331.492 20.7997 336.077 20.0361C340.287 19.3201 344.497 18.27 346.581 17.1245L350.041 22.3748C348.624 22.8044 347.498 23.1385 346.831 23.3295C344.247 24.0931 340.912 24.7136 337.703 25.2387C332.951 26.0024 326.823 26.1933 323.196 26.2887L321.863 20.752ZM323.655 53.6859C331.033 49.8198 334.326 43.5194 334.326 34.5938C334.326 34.5938 334.326 31.4913 334.326 24.7136L339.787 23.9977C339.787 28.1025 339.787 34.4506 339.787 34.4506C339.787 44.0922 337.036 52.254 328.991 57.7908L323.655 53.6859ZM318.736 32.2073C319.903 32.3028 321.279 32.446 322.613 32.446C325.239 32.446 347.54 32.446 350.333 32.446C351.208 32.446 353.167 32.3028 354.084 32.2073V38.3645C352.959 38.2691 351.583 38.1736 350.416 38.1736C347.79 38.1736 325.114 38.1736 322.655 38.1736C321.362 38.1736 319.82 38.2691 318.736 38.3645V32.2073Z" fill="white"/>
</g>
<path d="M24.6181 73.5031H36.0373C39.6955 73.5031 42.7109 72.5213 45.0837 70.5584C47.4565 68.5166 49.2115 65.6896 50.3484 62.0772C51.5349 58.3864 52.1281 54.1065 52.1281 49.2378C52.1281 44.8401 51.5843 40.9529 50.4968 37.5762C49.4587 34.1209 47.852 31.4509 45.677 29.5662C43.5019 27.603 40.7583 26.6213 37.4462 26.6213C34.8262 26.6213 32.4039 27.4459 30.1794 29.095C27.9549 30.7441 26.1753 33.0608 24.8405 36.0448C23.5058 39.029 22.8385 42.6413 22.8385 46.8819H1.40887C1.40887 37.4584 2.99076 29.2521 6.1545 22.263C9.36772 15.2739 13.6685 9.81616 19.0568 5.88968C24.4451 1.96323 30.3771 0 36.853 0C44.1692 0 50.5709 1.8847 56.0581 5.65409C61.545 9.34496 65.8211 14.8027 68.8861 22.0274C71.951 29.2521 73.4835 38.2044 73.4835 48.8844C73.4835 54.3029 72.6926 59.5643 71.1109 64.6687C69.5287 69.6946 67.2546 74.2495 64.2886 78.3325C61.3725 82.3378 57.813 85.5576 53.6111 87.9919C49.4092 90.3479 44.6883 91.5259 39.4483 91.5259H24.6181V73.5031ZM24.6181 99.3V81.7485H39.4483C45.3309 81.7485 50.4968 82.8092 54.9458 84.9292C59.3948 87.0492 63.1273 90.1119 66.1424 94.1173C69.1582 98.0438 71.4323 102.716 72.9647 108.135C74.4972 113.475 75.2632 119.404 75.2632 125.922C75.2632 133.932 74.2992 141.077 72.3713 147.36C70.4434 153.563 67.7247 158.825 64.2145 163.144C60.7542 167.464 56.7007 170.762 52.0539 173.039C47.4072 175.238 42.3402 176.337 36.853 176.337C32.3051 176.337 27.8313 175.356 23.4317 173.392C19.0815 171.35 15.1268 168.327 11.5675 164.322C8.05773 160.238 5.23999 155.134 3.11434 149.009C1.03811 142.805 0 135.462 0 126.982H21.4296C21.4296 131.379 22.1217 135.306 23.5058 138.761C24.89 142.216 26.7932 144.926 29.2155 146.888C31.6871 148.852 34.4308 149.834 37.4462 149.834C40.8571 149.834 43.7737 148.852 46.196 146.888C48.6677 144.847 50.5462 142.02 51.8315 138.408C53.1662 134.717 53.8335 130.437 53.8335 125.568C53.8335 119.286 53.1167 114.26 51.6832 110.49C50.2496 106.643 48.1981 103.815 45.5287 102.009C42.8592 100.203 39.6955 99.3 36.0373 99.3H24.6181Z" fill="#333333"/>
<path d="M286.806 85.6227C285.639 87.8183 284.055 92.0185 283.304 94.3096C280.136 103.76 275.051 116.361 268.131 126.671C260.378 138.126 250.124 150.44 233.95 160.655L224.696 150.918C239.869 142.613 250.29 132.017 259.127 118.843C265.714 108.915 269.465 99.0826 272.383 89.5365C273.133 87.0546 273.967 83.1407 274.384 80.7542L286.806 85.6227ZM240.953 94.8823C249.207 100.801 260.628 109.87 267.631 116.17C276.551 124.093 285.305 133.067 292.058 141.276L283.471 152.254C276.218 142.517 268.882 134.689 260.044 126.289C254.042 120.561 244.288 111.97 233.783 104.619L240.953 94.8823ZM366.756 81.7088C366.589 84.3817 366.506 87.4364 366.506 91.3503C366.506 96.2188 366.506 105.478 366.506 110.156C366.506 130.776 363.005 139.558 356.752 147.386C351.25 154.354 342.663 158.936 336.577 161.228L327.823 150.631C336.16 148.436 342.829 144.808 347.915 138.603C353.584 131.444 354.751 124.284 354.751 109.392C354.751 104.619 354.751 95.4551 354.751 91.3503C354.751 87.4364 354.501 84.3817 354.167 81.7088H366.756ZM328.156 82.5679C327.99 84.7635 327.823 86.8636 327.823 89.8229C327.823 94.0232 327.823 116.743 327.823 122.089C327.823 124.475 327.99 128.198 328.156 130.394H315.985C316.151 128.675 316.402 124.952 316.402 121.993C316.402 116.552 316.402 94.0232 316.402 89.8229C316.402 88.1046 316.318 84.7635 316.068 82.5679H328.156ZM425.281 99.1781C426.865 103.187 430.95 115.693 432.117 120.084L422.196 123.998C421.112 119.416 417.444 107.865 415.443 102.901L425.281 99.1781ZM456.044 106.051C455.127 109.201 454.626 111.206 454.126 113.115C451.959 122.757 448.374 132.685 442.705 140.99C434.951 152.541 424.614 160.464 414.86 164.76L406.106 154.545C415.193 151.681 426.865 144.426 433.701 134.499C439.37 126.48 443.455 113.784 444.372 101.756L456.044 106.051ZM405.939 104.142C408.023 109.011 412.108 120.657 413.692 126.003L403.522 130.298C402.188 125.239 397.936 112.447 395.935 108.342L405.939 104.142ZM492.726 146.717C492.726 139.367 492.726 99.8463 492.726 91.8276C492.726 88.391 492.476 83.7134 491.892 80.2769H504.898C504.564 83.7134 504.147 87.8183 504.147 91.8276C504.147 102.328 504.231 139.653 504.231 146.717C504.231 149.39 504.564 156.073 504.981 159.987H491.892C492.476 156.264 492.726 150.44 492.726 146.717ZM501.73 105.001C512.818 108.533 530.825 116.075 538.995 120.657L534.327 133.926C524.823 128.294 510.817 122.184 501.73 118.748V105.001Z" fill="#333333"/>
<path d="M90.2783 115.099C92.6775 114.653 95.9196 113.688 98.3187 112.871C103.247 111.089 116.475 105.818 126.006 105.818C137.678 105.818 146.95 113.54 146.95 127.275C146.95 144.055 132.944 154.821 110.12 156.157L106.294 146.283C123.867 145.837 137.678 140.046 137.678 127.053C137.678 120.073 133.463 114.802 125.682 114.802C116.085 114.802 100.783 122.152 93.9743 125.568L90.2783 115.099ZM190.005 104.927C189.098 112.5 187.801 121.187 185.531 129.948C181.641 144.946 176.064 154.153 168.997 154.153C161.734 154.153 155.769 145.02 155.769 132.473C155.769 115.396 168.802 100.695 185.596 100.695C201.612 100.695 211.792 113.465 211.792 129.725C211.792 145.317 203.428 156.38 187.088 159.276L182.16 150.515C184.688 150.143 186.504 149.772 188.255 149.327C196.49 147.025 202.974 140.269 202.974 129.354C202.974 117.697 196.619 109.382 185.402 109.382C171.655 109.382 164.133 122.227 164.133 131.582C164.133 139.081 166.727 142.719 169.191 142.719C171.979 142.719 174.443 137.967 177.167 127.944C179.047 120.964 180.474 112.426 181.122 104.63L190.005 104.927Z" fill="#333333"/>
</g>
<defs>
<filter id="filter0_d_101_2879" x="147.916" y="17.1245" width="210.168" height="50.3845" filterUnits="userSpaceOnUse" color-interpolation-filters="sRGB">
<feFlood flood-opacity="0" result="BackgroundImageFix"/>
<feColorMatrix in="SourceAlpha" type="matrix" values="0 0 0 0 0 0 0 0 0 0 0 0 0 0 0 0 0 0 127 0" result="hardAlpha"/>
<feOffset dy="4"/>
<feGaussianBlur stdDeviation="2"/>
<feComposite in2="hardAlpha" operator="out"/>
<feColorMatrix type="matrix" values="0 0 0 0 0 0 0 0 0 0 0 0 0 0 0 0 0 0 1 0"/>
<feBlend mode="normal" in2="BackgroundImageFix" result="effect1_dropShadow_101_2879"/>
<feBlend mode="normal" in="SourceGraphic" in2="effect1_dropShadow_101_2879" result="shape"/>
</filter>
</defs>
</svg>
